G04 #@! TF.FileFunction,Copper,L2,Bot,Signal*
%FSLAX46Y46*%
G04 Gerber Fmt 4.6, Leading zero omitted, Abs format (unit mm)*
G04 Created by KiCad (PCBNEW 4.0.4+dfsg1-stable) date Fri Sep 30 19:59:36 2016*
%MOMM*%
%LPD*%
G01*
G04 APERTURE LIST*
%ADD10C,0.150000*%
%ADD11O,2.000000X1.500000*%
%ADD12C,1.524000*%
%ADD13C,0.600000*%
%ADD14C,1.000000*%
G04 APERTURE END LIST*
D10*
D11*
X103600000Y-37400000D03*
X103600000Y-39400000D03*
X103600000Y-41400000D03*
X103600000Y-67400000D03*
X103600000Y-69400000D03*
X103600000Y-71400000D03*
X103600000Y-97400000D03*
X103600000Y-99400000D03*
X103600000Y-101400000D03*
X103600000Y-127400000D03*
X103600000Y-129400000D03*
X103600000Y-131400000D03*
X103600000Y-157400000D03*
X103600000Y-159400000D03*
X103600000Y-161400000D03*
X103600000Y-187400000D03*
X103600000Y-189400000D03*
X103600000Y-191400000D03*
X103600000Y-217400000D03*
X103600000Y-219400000D03*
X103600000Y-221400000D03*
D12*
X79700000Y-101300000D03*
X79700000Y-103840000D03*
X79700000Y-106380000D03*
X79700000Y-108920000D03*
X79700000Y-111460000D03*
X79700000Y-114000000D03*
X79700000Y-116540000D03*
X79700000Y-119080000D03*
X79700000Y-121620000D03*
X79700000Y-124160000D03*
X79700000Y-126700000D03*
X79700000Y-129240000D03*
X79700000Y-131780000D03*
X79700000Y-134320000D03*
X79700000Y-136860000D03*
X79700000Y-139400000D03*
X79700000Y-141940000D03*
X79700000Y-144480000D03*
X79700000Y-147020000D03*
X79700000Y-149560000D03*
X79700000Y-152100000D03*
X113600000Y-239400000D03*
X116140000Y-239400000D03*
X111060000Y-239400000D03*
D13*
X99700000Y-26700000D03*
X107500000Y-222100000D03*
X107500000Y-212100000D03*
X107500000Y-202100000D03*
X107500000Y-192100000D03*
X107500000Y-182100000D03*
X107500000Y-172100000D03*
X107500000Y-162100000D03*
X107500000Y-152100000D03*
X107500000Y-142100000D03*
X107500000Y-132100000D03*
X107500000Y-122100000D03*
X107500000Y-112100000D03*
X107500000Y-102100000D03*
X107500000Y-92100000D03*
X107500000Y-82100000D03*
X107500000Y-72100000D03*
X107500000Y-62100000D03*
X107500000Y-52100000D03*
X107500000Y-42100000D03*
X107500000Y-32100000D03*
X107500000Y-232100000D03*
X117500000Y-222100000D03*
X117500000Y-212100000D03*
X117500000Y-202100000D03*
X117500000Y-192100000D03*
X117500000Y-182100000D03*
X117500000Y-172100000D03*
X117500000Y-162100000D03*
X117500000Y-152100000D03*
X117500000Y-142100000D03*
X117500000Y-132100000D03*
X117500000Y-122100000D03*
X117500000Y-112100000D03*
X117500000Y-102100000D03*
X117500000Y-92100000D03*
X117500000Y-82100000D03*
X117500000Y-72100000D03*
X117500000Y-62100000D03*
X117500000Y-52100000D03*
X117500000Y-42100000D03*
X117500000Y-32100000D03*
X117500000Y-232100000D03*
X127500000Y-222100000D03*
X127500000Y-212100000D03*
X127500000Y-202100000D03*
X127500000Y-192100000D03*
X127500000Y-182100000D03*
X127500000Y-172100000D03*
X127500000Y-162100000D03*
X127500000Y-152100000D03*
X127500000Y-142100000D03*
X127500000Y-132100000D03*
X127500000Y-122100000D03*
X127500000Y-112100000D03*
X127500000Y-102100000D03*
X127500000Y-92100000D03*
X127500000Y-82100000D03*
X127500000Y-72100000D03*
X127500000Y-62100000D03*
X127500000Y-52100000D03*
X127500000Y-42100000D03*
X127500000Y-32100000D03*
X127500000Y-232100000D03*
X99700000Y-36700000D03*
X99700000Y-46700000D03*
X99700000Y-56700000D03*
X99700000Y-66700000D03*
X99700000Y-76700000D03*
X99700000Y-86700000D03*
X99700000Y-96700000D03*
X99700000Y-106700000D03*
X99700000Y-116700000D03*
X99700000Y-126700000D03*
X99700000Y-136700000D03*
X99700000Y-146700000D03*
X99700000Y-156700000D03*
X99700000Y-166700000D03*
X99700000Y-176700000D03*
X99700000Y-186700000D03*
X99700000Y-196700000D03*
X99700000Y-206700000D03*
X99700000Y-216700000D03*
X99700000Y-226700000D03*
D14*
X99700000Y-26700000D02*
X79700000Y-26700000D01*
X79700000Y-26700000D02*
X79700000Y-101300000D01*
X99700000Y-34400000D02*
X103600000Y-34400000D01*
X103600000Y-34400000D02*
X103600000Y-37400000D01*
X99700000Y-34400000D02*
X99700000Y-26700000D01*
X107500000Y-232100000D02*
X107500000Y-239400000D01*
X107500000Y-239400000D02*
X110957073Y-239400000D01*
X110957073Y-239400000D02*
X111060000Y-239400000D01*
X107500000Y-32100000D02*
X107500000Y-42100000D01*
X107500000Y-52100000D02*
X107500000Y-62100000D01*
X107500000Y-62100000D02*
X107500000Y-72100000D01*
X107500000Y-72100000D02*
X107500000Y-82100000D01*
X107500000Y-82100000D02*
X107500000Y-92100000D01*
X107500000Y-92100000D02*
X107500000Y-102100000D01*
X107500000Y-102100000D02*
X107500000Y-112100000D01*
X107500000Y-112100000D02*
X107500000Y-122100000D01*
X107500000Y-122100000D02*
X107500000Y-132100000D01*
X107500000Y-132100000D02*
X107500000Y-142100000D01*
X107500000Y-142100000D02*
X107500000Y-152100000D01*
X107500000Y-152100000D02*
X107500000Y-162100000D01*
X107500000Y-162100000D02*
X107500000Y-172100000D01*
X107500000Y-172100000D02*
X107500000Y-182100000D01*
X107500000Y-182100000D02*
X107500000Y-192100000D01*
X107500000Y-192100000D02*
X107500000Y-202100000D01*
X107500000Y-202100000D02*
X107500000Y-212100000D01*
X107500000Y-212100000D02*
X107500000Y-222100000D01*
X107500000Y-42100000D02*
X107500000Y-52100000D01*
X107500000Y-222100000D02*
X107500000Y-232100000D01*
X113600000Y-235400000D02*
X117500000Y-235400000D01*
X113600000Y-239400000D02*
X113600000Y-235400000D01*
X117500000Y-235400000D02*
X117500000Y-232100000D01*
X117500000Y-42100000D02*
X117500000Y-32100000D01*
X117500000Y-232100000D02*
X117500000Y-222100000D01*
X117500000Y-222100000D02*
X117500000Y-212100000D01*
X117500000Y-212100000D02*
X117500000Y-202100000D01*
X117500000Y-202100000D02*
X117500000Y-192100000D01*
X117500000Y-192100000D02*
X117500000Y-182100000D01*
X117500000Y-182100000D02*
X117500000Y-172100000D01*
X117500000Y-172100000D02*
X117500000Y-162100000D01*
X117500000Y-162100000D02*
X117500000Y-152100000D01*
X117500000Y-152100000D02*
X117500000Y-142100000D01*
X117500000Y-142100000D02*
X117500000Y-132100000D01*
X117500000Y-132100000D02*
X117500000Y-122100000D01*
X117500000Y-122100000D02*
X117500000Y-112100000D01*
X117500000Y-112100000D02*
X117500000Y-102100000D01*
X117500000Y-102100000D02*
X117500000Y-92100000D01*
X117500000Y-92100000D02*
X117500000Y-82100000D01*
X117500000Y-82100000D02*
X117500000Y-72100000D01*
X117500000Y-72100000D02*
X117500000Y-62100000D01*
X117500000Y-62100000D02*
X117500000Y-52100000D01*
X117500000Y-52100000D02*
X117500000Y-42100000D01*
X127500000Y-239400000D02*
X127500000Y-232100000D01*
X116140000Y-239400000D02*
X127500000Y-239400000D01*
X127500000Y-42100000D02*
X127500000Y-32100000D01*
X127500000Y-232100000D02*
X127500000Y-222100000D01*
X127500000Y-222100000D02*
X127500000Y-212100000D01*
X127500000Y-212100000D02*
X127500000Y-202100000D01*
X127500000Y-202100000D02*
X127500000Y-192100000D01*
X127500000Y-192100000D02*
X127500000Y-182100000D01*
X127500000Y-182100000D02*
X127500000Y-172100000D01*
X127500000Y-172100000D02*
X127500000Y-162100000D01*
X127500000Y-162100000D02*
X127500000Y-152100000D01*
X127500000Y-152100000D02*
X127500000Y-142100000D01*
X127500000Y-142100000D02*
X127500000Y-132100000D01*
X127500000Y-132100000D02*
X127500000Y-122100000D01*
X127500000Y-122100000D02*
X127500000Y-112100000D01*
X127500000Y-112100000D02*
X127500000Y-102100000D01*
X127500000Y-102100000D02*
X127500000Y-92100000D01*
X127500000Y-92100000D02*
X127500000Y-82100000D01*
X127500000Y-82100000D02*
X127500000Y-72100000D01*
X127500000Y-72100000D02*
X127500000Y-62100000D01*
X127500000Y-62100000D02*
X127500000Y-52100000D01*
X127500000Y-52100000D02*
X127500000Y-42100000D01*
X99700000Y-36700000D02*
X81700000Y-36700000D01*
X81700000Y-36700000D02*
X81660000Y-36740000D01*
X81660000Y-103840000D02*
X81660000Y-36740000D01*
X81660000Y-36740000D02*
X81700000Y-36700000D01*
X79700000Y-103840000D02*
X81660000Y-103840000D01*
X103600000Y-39400000D02*
X99700000Y-39400000D01*
X99700000Y-39400000D02*
X99700000Y-36700000D01*
X99700000Y-46700000D02*
X83700000Y-46700000D01*
X83620000Y-106380000D02*
X83700000Y-106300000D01*
X83700000Y-106300000D02*
X83700000Y-46700000D01*
X83620000Y-106380000D02*
X79700000Y-106380000D01*
X103600000Y-41400000D02*
X99700000Y-41400000D01*
X99700000Y-41400000D02*
X99700000Y-46700000D01*
X99700000Y-56700000D02*
X85700000Y-56700000D01*
X85680000Y-108920000D02*
X79700000Y-108920000D01*
X85700000Y-108900000D02*
X85700000Y-56700000D01*
X85680000Y-108920000D02*
X85700000Y-108900000D01*
X99680000Y-56720000D02*
X99700000Y-56700000D01*
X99680000Y-56720000D02*
X99700000Y-56700000D01*
X99680000Y-56720000D02*
X99700000Y-56700000D01*
X99700000Y-64300000D02*
X99700000Y-56700000D01*
X103600000Y-64400000D02*
X103500000Y-64300000D01*
X103500000Y-64300000D02*
X99700000Y-64300000D01*
X103600000Y-67400000D02*
X103600000Y-64400000D01*
X99700000Y-66700000D02*
X87700000Y-66700000D01*
X87700000Y-66700000D02*
X87700000Y-111300000D01*
X87700000Y-111300000D02*
X87540000Y-111460000D01*
X87540000Y-111460000D02*
X87700000Y-111300000D01*
X87540000Y-111460000D02*
X79700000Y-111460000D01*
X103600000Y-69400000D02*
X99700000Y-69400000D01*
X99700000Y-69400000D02*
X99700000Y-66700000D01*
X99700000Y-76700000D02*
X89700000Y-76700000D01*
X89600000Y-114000000D02*
X79700000Y-114000000D01*
X89700000Y-113900000D02*
X89700000Y-76700000D01*
X89600000Y-114000000D02*
X89700000Y-113900000D01*
X103600000Y-71400000D02*
X99700000Y-71400000D01*
X99700000Y-71400000D02*
X99700000Y-76700000D01*
X99700000Y-86700000D02*
X91700000Y-86700000D01*
X91660000Y-116540000D02*
X79700000Y-116540000D01*
X91700000Y-116500000D02*
X91700000Y-86700000D01*
X91660000Y-116540000D02*
X91700000Y-116500000D01*
X99700000Y-94400000D02*
X99700000Y-86700000D01*
X103600000Y-94400000D02*
X99700000Y-94400000D01*
X103600000Y-97400000D02*
X103600000Y-94400000D01*
X99700000Y-96700000D02*
X93800000Y-96700000D01*
X93680000Y-119080000D02*
X79700000Y-119080000D01*
X93700000Y-119060000D02*
X93700000Y-96600000D01*
X93680000Y-119080000D02*
X93700000Y-119060000D01*
X93800000Y-96700000D02*
X93700000Y-96600000D01*
X99700000Y-96700000D02*
X99700000Y-99400000D01*
X99700000Y-99400000D02*
X103600000Y-99400000D01*
X99700000Y-106700000D02*
X95700000Y-106700000D01*
X95700000Y-121500000D02*
X95700000Y-106700000D01*
X95580000Y-121620000D02*
X95700000Y-121500000D01*
X95580000Y-121620000D02*
X79700000Y-121620000D01*
X103600000Y-101400000D02*
X99700000Y-101400000D01*
X99700000Y-101400000D02*
X99700000Y-106700000D01*
X99700000Y-116700000D02*
X97700000Y-116700000D01*
X79700000Y-124160000D02*
X97640000Y-124160000D01*
X97640000Y-124160000D02*
X97700000Y-124100000D01*
X97700000Y-124100000D02*
X97700000Y-116700000D01*
X97640000Y-124160000D02*
X97700000Y-124100000D01*
X97700000Y-124100000D02*
X97700000Y-116700000D01*
X79740000Y-124200000D02*
X79700000Y-124160000D01*
X99700000Y-124400000D02*
X99700000Y-116700000D01*
X103600000Y-124400000D02*
X99700000Y-124400000D01*
X103600000Y-127400000D02*
X103600000Y-124400000D01*
X79700000Y-126700000D02*
X99700000Y-126700000D01*
X103600000Y-129400000D02*
X99700000Y-129400000D01*
X99700000Y-129400000D02*
X99700000Y-126700000D01*
X99700000Y-136700000D02*
X97700000Y-136700000D01*
X97660000Y-129240000D02*
X97700000Y-129280000D01*
X97700000Y-129280000D02*
X97700000Y-136700000D01*
X97660000Y-129240000D02*
X79700000Y-129240000D01*
X103600000Y-131400000D02*
X99700000Y-131400000D01*
X99700000Y-131400000D02*
X99700000Y-136700000D01*
X99700000Y-146700000D02*
X95700000Y-146700000D01*
X95680000Y-131780000D02*
X95700000Y-131800000D01*
X95700000Y-131800000D02*
X95700000Y-146700000D01*
X95680000Y-131780000D02*
X79700000Y-131780000D01*
X99700000Y-154400000D02*
X99700000Y-146700000D01*
X103600000Y-154400000D02*
X99700000Y-154400000D01*
X103600000Y-157400000D02*
X103600000Y-154400000D01*
X99700000Y-156700000D02*
X93700000Y-156700000D01*
X93680000Y-134320000D02*
X93700000Y-134340000D01*
X93700000Y-134340000D02*
X93700000Y-156700000D01*
X93680000Y-134320000D02*
X79700000Y-134320000D01*
X103600000Y-159400000D02*
X99700000Y-159400000D01*
X99700000Y-159400000D02*
X99700000Y-156700000D01*
X99700000Y-166700000D02*
X91700000Y-166700000D01*
X91660000Y-136860000D02*
X91700000Y-136900000D01*
X91700000Y-136900000D02*
X91700000Y-166700000D01*
X91660000Y-136860000D02*
X79700000Y-136860000D01*
X103600000Y-161400000D02*
X99700000Y-161400000D01*
X99700000Y-161400000D02*
X99700000Y-166700000D01*
X99700000Y-176700000D02*
X89700000Y-176700000D01*
X89700000Y-139400000D02*
X89700000Y-176700000D01*
X89700000Y-139400000D02*
X79700000Y-139400000D01*
X99700000Y-184300000D02*
X99700000Y-176700000D01*
X103600000Y-184400000D02*
X103500000Y-184300000D01*
X103500000Y-184300000D02*
X99700000Y-184300000D01*
X103600000Y-187400000D02*
X103600000Y-184400000D01*
X99700000Y-186700000D02*
X87700000Y-186700000D01*
X87640000Y-141940000D02*
X87700000Y-142000000D01*
X87700000Y-142000000D02*
X87700000Y-186700000D01*
X87640000Y-141940000D02*
X79700000Y-141940000D01*
X103600000Y-189400000D02*
X99700000Y-189400000D01*
X99700000Y-189400000D02*
X99700000Y-186700000D01*
X99700000Y-196700000D02*
X85700000Y-196700000D01*
X85680000Y-144480000D02*
X85700000Y-144500000D01*
X85700000Y-144500000D02*
X85700000Y-196700000D01*
X85680000Y-144480000D02*
X79700000Y-144480000D01*
X103600000Y-191400000D02*
X99700000Y-191400000D01*
X99700000Y-191400000D02*
X99700000Y-196700000D01*
X99700000Y-206700000D02*
X83700000Y-206700000D01*
X83620000Y-147020000D02*
X83700000Y-147100000D01*
X83700000Y-147100000D02*
X83700000Y-206700000D01*
X83620000Y-147020000D02*
X79700000Y-147020000D01*
X99700000Y-214400000D02*
X99700000Y-206700000D01*
X103600000Y-214400000D02*
X99700000Y-214400000D01*
X103600000Y-217400000D02*
X103600000Y-214400000D01*
X99700000Y-216700000D02*
X81700000Y-216700000D01*
X81660000Y-149560000D02*
X81700000Y-149600000D01*
X81700000Y-149600000D02*
X81700000Y-216700000D01*
X81660000Y-149560000D02*
X79700000Y-149560000D01*
X103600000Y-219400000D02*
X99700000Y-219400000D01*
X99700000Y-219400000D02*
X99700000Y-216700000D01*
X99700000Y-226700000D02*
X79700000Y-226700000D01*
X99700000Y-221400000D02*
X99700000Y-226700000D01*
X79700000Y-226700000D02*
X79700000Y-152100000D01*
X103600000Y-221400000D02*
X99700000Y-221400000D01*
M02*
