M48
;DRILL file {KiCad 4.0.4+dfsg1-stable} date Fri Sep 30 19:58:35 2016
;FORMAT={-:-/ absolute / inch / decimal}
FMAT,2
INCH,TZ
T1C0.016
T2C0.030
%
G90
G05
M72
T1
X3.9252Y-1.0512
X3.9252Y-1.4449
X3.9252Y-1.8386
X3.9252Y-2.2323
X3.9252Y-2.626
X3.9252Y-3.0197
X3.9252Y-3.4134
X3.9252Y-3.8071
X3.9252Y-4.2008
X3.9252Y-4.5945
X3.9252Y-4.9882
X3.9252Y-5.3819
X3.9252Y-5.7756
X3.9252Y-6.1693
X3.9252Y-6.563
X3.9252Y-6.9567
X3.9252Y-7.3504
X3.9252Y-7.7441
X3.9252Y-8.1378
X3.9252Y-8.5315
X3.9252Y-8.9252
X4.2323Y-1.2638
X4.2323Y-1.6575
X4.2323Y-2.0512
X4.2323Y-2.4449
X4.2323Y-2.8386
X4.2323Y-3.2323
X4.2323Y-3.626
X4.2323Y-4.0197
X4.2323Y-4.4134
X4.2323Y-4.8071
X4.2323Y-5.2008
X4.2323Y-5.5945
X4.2323Y-5.9882
X4.2323Y-6.3819
X4.2323Y-6.7756
X4.2323Y-7.1693
X4.2323Y-7.563
X4.2323Y-7.9567
X4.2323Y-8.3504
X4.2323Y-8.7441
X4.2323Y-9.1378
X4.626Y-1.2638
X4.626Y-1.6575
X4.626Y-2.0512
X4.626Y-2.4449
X4.626Y-2.8386
X4.626Y-3.2323
X4.626Y-3.626
X4.626Y-4.0197
X4.626Y-4.4134
X4.626Y-4.8071
X4.626Y-5.2008
X4.626Y-5.5945
X4.626Y-5.9882
X4.626Y-6.3819
X4.626Y-6.7756
X4.626Y-7.1693
X4.626Y-7.563
X4.626Y-7.9567
X4.626Y-8.3504
X4.626Y-8.7441
X4.626Y-9.1378
X5.0197Y-1.2638
X5.0197Y-1.6575
X5.0197Y-2.0512
X5.0197Y-2.4449
X5.0197Y-2.8386
X5.0197Y-3.2323
X5.0197Y-3.626
X5.0197Y-4.0197
X5.0197Y-4.4134
X5.0197Y-4.8071
X5.0197Y-5.2008
X5.0197Y-5.5945
X5.0197Y-5.9882
X5.0197Y-6.3819
X5.0197Y-6.7756
X5.0197Y-7.1693
X5.0197Y-7.563
X5.0197Y-7.9567
X5.0197Y-8.3504
X5.0197Y-8.7441
X5.0197Y-9.1378
T2
X3.1378Y-3.9882
X3.1378Y-4.0882
X3.1378Y-4.1882
X3.1378Y-4.2882
X3.1378Y-4.3882
X3.1378Y-4.4882
X3.1378Y-4.5882
X3.1378Y-4.6882
X3.1378Y-4.7882
X3.1378Y-4.8882
X3.1378Y-4.9882
X3.1378Y-5.0882
X3.1378Y-5.1882
X3.1378Y-5.2882
X3.1378Y-5.3882
X3.1378Y-5.4882
X3.1378Y-5.5882
X3.1378Y-5.6882
X3.1378Y-5.7882
X3.1378Y-5.8882
X3.1378Y-5.9882
X4.3724Y-9.4252
X4.4724Y-9.4252
X4.5724Y-9.4252
T0
M30
