G04 #@! TF.FileFunction,Paste,Top*
%FSLAX46Y46*%
G04 Gerber Fmt 4.6, Leading zero omitted, Abs format (unit mm)*
G04 Created by KiCad (PCBNEW 4.0.4+dfsg1-stable) date Fri Sep 30 19:59:36 2016*
%MOMM*%
%LPD*%
G01*
G04 APERTURE LIST*
%ADD10C,0.150000*%
%ADD11R,1.600000X2.700000*%
%ADD12R,1.600000X3.000000*%
G04 APERTURE END LIST*
D10*
D11*
X105600000Y-26850000D03*
D12*
X103600000Y-26700000D03*
X101600000Y-26700000D03*
X101600000Y-32100000D03*
X103600000Y-32100000D03*
X105600000Y-32100000D03*
D11*
X115600000Y-26850000D03*
D12*
X113600000Y-26700000D03*
X111600000Y-26700000D03*
X111600000Y-32100000D03*
X113600000Y-32100000D03*
X115600000Y-32100000D03*
D11*
X125600000Y-26850000D03*
D12*
X123600000Y-26700000D03*
X121600000Y-26700000D03*
X121600000Y-32100000D03*
X123600000Y-32100000D03*
X125600000Y-32100000D03*
D11*
X105600000Y-36850000D03*
D12*
X103600000Y-36700000D03*
X101600000Y-36700000D03*
X101600000Y-42100000D03*
X103600000Y-42100000D03*
X105600000Y-42100000D03*
D11*
X115600000Y-36850000D03*
D12*
X113600000Y-36700000D03*
X111600000Y-36700000D03*
X111600000Y-42100000D03*
X113600000Y-42100000D03*
X115600000Y-42100000D03*
D11*
X125600000Y-36850000D03*
D12*
X123600000Y-36700000D03*
X121600000Y-36700000D03*
X121600000Y-42100000D03*
X123600000Y-42100000D03*
X125600000Y-42100000D03*
D11*
X105600000Y-46850000D03*
D12*
X103600000Y-46700000D03*
X101600000Y-46700000D03*
X101600000Y-52100000D03*
X103600000Y-52100000D03*
X105600000Y-52100000D03*
D11*
X115600000Y-46850000D03*
D12*
X113600000Y-46700000D03*
X111600000Y-46700000D03*
X111600000Y-52100000D03*
X113600000Y-52100000D03*
X115600000Y-52100000D03*
D11*
X125600000Y-46850000D03*
D12*
X123600000Y-46700000D03*
X121600000Y-46700000D03*
X121600000Y-52100000D03*
X123600000Y-52100000D03*
X125600000Y-52100000D03*
D11*
X105600000Y-56850000D03*
D12*
X103600000Y-56700000D03*
X101600000Y-56700000D03*
X101600000Y-62100000D03*
X103600000Y-62100000D03*
X105600000Y-62100000D03*
D11*
X115600000Y-56850000D03*
D12*
X113600000Y-56700000D03*
X111600000Y-56700000D03*
X111600000Y-62100000D03*
X113600000Y-62100000D03*
X115600000Y-62100000D03*
D11*
X125600000Y-56850000D03*
D12*
X123600000Y-56700000D03*
X121600000Y-56700000D03*
X121600000Y-62100000D03*
X123600000Y-62100000D03*
X125600000Y-62100000D03*
D11*
X105600000Y-66850000D03*
D12*
X103600000Y-66700000D03*
X101600000Y-66700000D03*
X101600000Y-72100000D03*
X103600000Y-72100000D03*
X105600000Y-72100000D03*
D11*
X115600000Y-66850000D03*
D12*
X113600000Y-66700000D03*
X111600000Y-66700000D03*
X111600000Y-72100000D03*
X113600000Y-72100000D03*
X115600000Y-72100000D03*
D11*
X125600000Y-66850000D03*
D12*
X123600000Y-66700000D03*
X121600000Y-66700000D03*
X121600000Y-72100000D03*
X123600000Y-72100000D03*
X125600000Y-72100000D03*
D11*
X105600000Y-76850000D03*
D12*
X103600000Y-76700000D03*
X101600000Y-76700000D03*
X101600000Y-82100000D03*
X103600000Y-82100000D03*
X105600000Y-82100000D03*
D11*
X115600000Y-76850000D03*
D12*
X113600000Y-76700000D03*
X111600000Y-76700000D03*
X111600000Y-82100000D03*
X113600000Y-82100000D03*
X115600000Y-82100000D03*
D11*
X125600000Y-76850000D03*
D12*
X123600000Y-76700000D03*
X121600000Y-76700000D03*
X121600000Y-82100000D03*
X123600000Y-82100000D03*
X125600000Y-82100000D03*
D11*
X105600000Y-86850000D03*
D12*
X103600000Y-86700000D03*
X101600000Y-86700000D03*
X101600000Y-92100000D03*
X103600000Y-92100000D03*
X105600000Y-92100000D03*
D11*
X115600000Y-86850000D03*
D12*
X113600000Y-86700000D03*
X111600000Y-86700000D03*
X111600000Y-92100000D03*
X113600000Y-92100000D03*
X115600000Y-92100000D03*
D11*
X125600000Y-86850000D03*
D12*
X123600000Y-86700000D03*
X121600000Y-86700000D03*
X121600000Y-92100000D03*
X123600000Y-92100000D03*
X125600000Y-92100000D03*
D11*
X105600000Y-96850000D03*
D12*
X103600000Y-96700000D03*
X101600000Y-96700000D03*
X101600000Y-102100000D03*
X103600000Y-102100000D03*
X105600000Y-102100000D03*
D11*
X115600000Y-96850000D03*
D12*
X113600000Y-96700000D03*
X111600000Y-96700000D03*
X111600000Y-102100000D03*
X113600000Y-102100000D03*
X115600000Y-102100000D03*
D11*
X125600000Y-96850000D03*
D12*
X123600000Y-96700000D03*
X121600000Y-96700000D03*
X121600000Y-102100000D03*
X123600000Y-102100000D03*
X125600000Y-102100000D03*
D11*
X105600000Y-106850000D03*
D12*
X103600000Y-106700000D03*
X101600000Y-106700000D03*
X101600000Y-112100000D03*
X103600000Y-112100000D03*
X105600000Y-112100000D03*
D11*
X115600000Y-106850000D03*
D12*
X113600000Y-106700000D03*
X111600000Y-106700000D03*
X111600000Y-112100000D03*
X113600000Y-112100000D03*
X115600000Y-112100000D03*
D11*
X125600000Y-106850000D03*
D12*
X123600000Y-106700000D03*
X121600000Y-106700000D03*
X121600000Y-112100000D03*
X123600000Y-112100000D03*
X125600000Y-112100000D03*
D11*
X105600000Y-116850000D03*
D12*
X103600000Y-116700000D03*
X101600000Y-116700000D03*
X101600000Y-122100000D03*
X103600000Y-122100000D03*
X105600000Y-122100000D03*
D11*
X115600000Y-116850000D03*
D12*
X113600000Y-116700000D03*
X111600000Y-116700000D03*
X111600000Y-122100000D03*
X113600000Y-122100000D03*
X115600000Y-122100000D03*
D11*
X125600000Y-116850000D03*
D12*
X123600000Y-116700000D03*
X121600000Y-116700000D03*
X121600000Y-122100000D03*
X123600000Y-122100000D03*
X125600000Y-122100000D03*
D11*
X105600000Y-126850000D03*
D12*
X103600000Y-126700000D03*
X101600000Y-126700000D03*
X101600000Y-132100000D03*
X103600000Y-132100000D03*
X105600000Y-132100000D03*
D11*
X115600000Y-126850000D03*
D12*
X113600000Y-126700000D03*
X111600000Y-126700000D03*
X111600000Y-132100000D03*
X113600000Y-132100000D03*
X115600000Y-132100000D03*
D11*
X125600000Y-126850000D03*
D12*
X123600000Y-126700000D03*
X121600000Y-126700000D03*
X121600000Y-132100000D03*
X123600000Y-132100000D03*
X125600000Y-132100000D03*
D11*
X105600000Y-136850000D03*
D12*
X103600000Y-136700000D03*
X101600000Y-136700000D03*
X101600000Y-142100000D03*
X103600000Y-142100000D03*
X105600000Y-142100000D03*
D11*
X115600000Y-136850000D03*
D12*
X113600000Y-136700000D03*
X111600000Y-136700000D03*
X111600000Y-142100000D03*
X113600000Y-142100000D03*
X115600000Y-142100000D03*
D11*
X125600000Y-136850000D03*
D12*
X123600000Y-136700000D03*
X121600000Y-136700000D03*
X121600000Y-142100000D03*
X123600000Y-142100000D03*
X125600000Y-142100000D03*
D11*
X105600000Y-146850000D03*
D12*
X103600000Y-146700000D03*
X101600000Y-146700000D03*
X101600000Y-152100000D03*
X103600000Y-152100000D03*
X105600000Y-152100000D03*
D11*
X115600000Y-146850000D03*
D12*
X113600000Y-146700000D03*
X111600000Y-146700000D03*
X111600000Y-152100000D03*
X113600000Y-152100000D03*
X115600000Y-152100000D03*
D11*
X125600000Y-146850000D03*
D12*
X123600000Y-146700000D03*
X121600000Y-146700000D03*
X121600000Y-152100000D03*
X123600000Y-152100000D03*
X125600000Y-152100000D03*
D11*
X105600000Y-156850000D03*
D12*
X103600000Y-156700000D03*
X101600000Y-156700000D03*
X101600000Y-162100000D03*
X103600000Y-162100000D03*
X105600000Y-162100000D03*
D11*
X115600000Y-156850000D03*
D12*
X113600000Y-156700000D03*
X111600000Y-156700000D03*
X111600000Y-162100000D03*
X113600000Y-162100000D03*
X115600000Y-162100000D03*
D11*
X125600000Y-156850000D03*
D12*
X123600000Y-156700000D03*
X121600000Y-156700000D03*
X121600000Y-162100000D03*
X123600000Y-162100000D03*
X125600000Y-162100000D03*
D11*
X105600000Y-166850000D03*
D12*
X103600000Y-166700000D03*
X101600000Y-166700000D03*
X101600000Y-172100000D03*
X103600000Y-172100000D03*
X105600000Y-172100000D03*
D11*
X115600000Y-166850000D03*
D12*
X113600000Y-166700000D03*
X111600000Y-166700000D03*
X111600000Y-172100000D03*
X113600000Y-172100000D03*
X115600000Y-172100000D03*
D11*
X125600000Y-166850000D03*
D12*
X123600000Y-166700000D03*
X121600000Y-166700000D03*
X121600000Y-172100000D03*
X123600000Y-172100000D03*
X125600000Y-172100000D03*
D11*
X105600000Y-176850000D03*
D12*
X103600000Y-176700000D03*
X101600000Y-176700000D03*
X101600000Y-182100000D03*
X103600000Y-182100000D03*
X105600000Y-182100000D03*
D11*
X115600000Y-176850000D03*
D12*
X113600000Y-176700000D03*
X111600000Y-176700000D03*
X111600000Y-182100000D03*
X113600000Y-182100000D03*
X115600000Y-182100000D03*
D11*
X125600000Y-176850000D03*
D12*
X123600000Y-176700000D03*
X121600000Y-176700000D03*
X121600000Y-182100000D03*
X123600000Y-182100000D03*
X125600000Y-182100000D03*
D11*
X105600000Y-186850000D03*
D12*
X103600000Y-186700000D03*
X101600000Y-186700000D03*
X101600000Y-192100000D03*
X103600000Y-192100000D03*
X105600000Y-192100000D03*
D11*
X115600000Y-186850000D03*
D12*
X113600000Y-186700000D03*
X111600000Y-186700000D03*
X111600000Y-192100000D03*
X113600000Y-192100000D03*
X115600000Y-192100000D03*
D11*
X125600000Y-186850000D03*
D12*
X123600000Y-186700000D03*
X121600000Y-186700000D03*
X121600000Y-192100000D03*
X123600000Y-192100000D03*
X125600000Y-192100000D03*
D11*
X105600000Y-196850000D03*
D12*
X103600000Y-196700000D03*
X101600000Y-196700000D03*
X101600000Y-202100000D03*
X103600000Y-202100000D03*
X105600000Y-202100000D03*
D11*
X115600000Y-196850000D03*
D12*
X113600000Y-196700000D03*
X111600000Y-196700000D03*
X111600000Y-202100000D03*
X113600000Y-202100000D03*
X115600000Y-202100000D03*
D11*
X125600000Y-196850000D03*
D12*
X123600000Y-196700000D03*
X121600000Y-196700000D03*
X121600000Y-202100000D03*
X123600000Y-202100000D03*
X125600000Y-202100000D03*
D11*
X105600000Y-206850000D03*
D12*
X103600000Y-206700000D03*
X101600000Y-206700000D03*
X101600000Y-212100000D03*
X103600000Y-212100000D03*
X105600000Y-212100000D03*
D11*
X115600000Y-206850000D03*
D12*
X113600000Y-206700000D03*
X111600000Y-206700000D03*
X111600000Y-212100000D03*
X113600000Y-212100000D03*
X115600000Y-212100000D03*
D11*
X125600000Y-206850000D03*
D12*
X123600000Y-206700000D03*
X121600000Y-206700000D03*
X121600000Y-212100000D03*
X123600000Y-212100000D03*
X125600000Y-212100000D03*
D11*
X105600000Y-216850000D03*
D12*
X103600000Y-216700000D03*
X101600000Y-216700000D03*
X101600000Y-222100000D03*
X103600000Y-222100000D03*
X105600000Y-222100000D03*
D11*
X115600000Y-216850000D03*
D12*
X113600000Y-216700000D03*
X111600000Y-216700000D03*
X111600000Y-222100000D03*
X113600000Y-222100000D03*
X115600000Y-222100000D03*
D11*
X125600000Y-216850000D03*
D12*
X123600000Y-216700000D03*
X121600000Y-216700000D03*
X121600000Y-222100000D03*
X123600000Y-222100000D03*
X125600000Y-222100000D03*
D11*
X105600000Y-226850000D03*
D12*
X103600000Y-226700000D03*
X101600000Y-226700000D03*
X101600000Y-232100000D03*
X103600000Y-232100000D03*
X105600000Y-232100000D03*
D11*
X115600000Y-226850000D03*
D12*
X113600000Y-226700000D03*
X111600000Y-226700000D03*
X111600000Y-232100000D03*
X113600000Y-232100000D03*
X115600000Y-232100000D03*
D11*
X125600000Y-226850000D03*
D12*
X123600000Y-226700000D03*
X121600000Y-226700000D03*
X121600000Y-232100000D03*
X123600000Y-232100000D03*
X125600000Y-232100000D03*
M02*
