G04 #@! TF.FileFunction,Legend,Bot*
%FSLAX46Y46*%
G04 Gerber Fmt 4.6, Leading zero omitted, Abs format (unit mm)*
G04 Created by KiCad (PCBNEW 4.0.4+dfsg1-stable) date Fri Sep 30 19:59:36 2016*
%MOMM*%
%LPD*%
G01*
G04 APERTURE LIST*
%ADD10C,0.150000*%
%ADD11C,0.300000*%
%ADD12C,0.200000*%
G04 APERTURE END LIST*
D10*
D11*
X115564286Y-34578571D02*
X114707143Y-34578571D01*
X115135714Y-36078571D02*
X115135714Y-34578571D01*
X113921429Y-34578571D02*
X113635715Y-34578571D01*
X113492857Y-34650000D01*
X113350000Y-34792857D01*
X113278572Y-35078571D01*
X113278572Y-35578571D01*
X113350000Y-35864286D01*
X113492857Y-36007143D01*
X113635715Y-36078571D01*
X113921429Y-36078571D01*
X114064286Y-36007143D01*
X114207143Y-35864286D01*
X114278572Y-35578571D01*
X114278572Y-35078571D01*
X114207143Y-34792857D01*
X114064286Y-34650000D01*
X113921429Y-34578571D01*
X112635714Y-36078571D02*
X112635714Y-34578571D01*
X112064286Y-34578571D01*
X111921428Y-34650000D01*
X111850000Y-34721429D01*
X111778571Y-34864286D01*
X111778571Y-35078571D01*
X111850000Y-35221429D01*
X111921428Y-35292857D01*
X112064286Y-35364286D01*
X112635714Y-35364286D01*
D12*
X115600000Y-31400000D02*
X113600000Y-29400000D01*
X114350000Y-31400000D02*
X115600000Y-31400000D01*
X114350000Y-33900000D02*
X114350000Y-31400000D01*
X113600000Y-33900000D02*
X114350000Y-33900000D01*
X112850000Y-33900000D02*
X113600000Y-33900000D01*
X112850000Y-31400000D02*
X112850000Y-33900000D01*
X111600000Y-31400000D02*
X112850000Y-31400000D01*
X113600000Y-29400000D02*
X111600000Y-31400000D01*
D10*
X104952381Y-38566667D02*
X105666667Y-38566667D01*
X105809524Y-38519047D01*
X105904762Y-38423809D01*
X105952381Y-38280952D01*
X105952381Y-38185714D01*
X105952381Y-39042857D02*
X104952381Y-39042857D01*
X104952381Y-39423810D01*
X105000000Y-39519048D01*
X105047619Y-39566667D01*
X105142857Y-39614286D01*
X105285714Y-39614286D01*
X105380952Y-39566667D01*
X105428571Y-39519048D01*
X105476190Y-39423810D01*
X105476190Y-39042857D01*
X105952381Y-40566667D02*
X105952381Y-39995238D01*
X105952381Y-40280952D02*
X104952381Y-40280952D01*
X105095238Y-40185714D01*
X105190476Y-40090476D01*
X105238095Y-39995238D01*
X104952381Y-68566667D02*
X105666667Y-68566667D01*
X105809524Y-68519047D01*
X105904762Y-68423809D01*
X105952381Y-68280952D01*
X105952381Y-68185714D01*
X105952381Y-69042857D02*
X104952381Y-69042857D01*
X104952381Y-69423810D01*
X105000000Y-69519048D01*
X105047619Y-69566667D01*
X105142857Y-69614286D01*
X105285714Y-69614286D01*
X105380952Y-69566667D01*
X105428571Y-69519048D01*
X105476190Y-69423810D01*
X105476190Y-69042857D01*
X105047619Y-69995238D02*
X105000000Y-70042857D01*
X104952381Y-70138095D01*
X104952381Y-70376191D01*
X105000000Y-70471429D01*
X105047619Y-70519048D01*
X105142857Y-70566667D01*
X105238095Y-70566667D01*
X105380952Y-70519048D01*
X105952381Y-69947619D01*
X105952381Y-70566667D01*
X104952381Y-98566667D02*
X105666667Y-98566667D01*
X105809524Y-98519047D01*
X105904762Y-98423809D01*
X105952381Y-98280952D01*
X105952381Y-98185714D01*
X105952381Y-99042857D02*
X104952381Y-99042857D01*
X104952381Y-99423810D01*
X105000000Y-99519048D01*
X105047619Y-99566667D01*
X105142857Y-99614286D01*
X105285714Y-99614286D01*
X105380952Y-99566667D01*
X105428571Y-99519048D01*
X105476190Y-99423810D01*
X105476190Y-99042857D01*
X104952381Y-99947619D02*
X104952381Y-100566667D01*
X105333333Y-100233333D01*
X105333333Y-100376191D01*
X105380952Y-100471429D01*
X105428571Y-100519048D01*
X105523810Y-100566667D01*
X105761905Y-100566667D01*
X105857143Y-100519048D01*
X105904762Y-100471429D01*
X105952381Y-100376191D01*
X105952381Y-100090476D01*
X105904762Y-99995238D01*
X105857143Y-99947619D01*
X104952381Y-128566667D02*
X105666667Y-128566667D01*
X105809524Y-128519047D01*
X105904762Y-128423809D01*
X105952381Y-128280952D01*
X105952381Y-128185714D01*
X105952381Y-129042857D02*
X104952381Y-129042857D01*
X104952381Y-129423810D01*
X105000000Y-129519048D01*
X105047619Y-129566667D01*
X105142857Y-129614286D01*
X105285714Y-129614286D01*
X105380952Y-129566667D01*
X105428571Y-129519048D01*
X105476190Y-129423810D01*
X105476190Y-129042857D01*
X105285714Y-130471429D02*
X105952381Y-130471429D01*
X104904762Y-130233333D02*
X105619048Y-129995238D01*
X105619048Y-130614286D01*
X104952381Y-158566667D02*
X105666667Y-158566667D01*
X105809524Y-158519047D01*
X105904762Y-158423809D01*
X105952381Y-158280952D01*
X105952381Y-158185714D01*
X105952381Y-159042857D02*
X104952381Y-159042857D01*
X104952381Y-159423810D01*
X105000000Y-159519048D01*
X105047619Y-159566667D01*
X105142857Y-159614286D01*
X105285714Y-159614286D01*
X105380952Y-159566667D01*
X105428571Y-159519048D01*
X105476190Y-159423810D01*
X105476190Y-159042857D01*
X104952381Y-160519048D02*
X104952381Y-160042857D01*
X105428571Y-159995238D01*
X105380952Y-160042857D01*
X105333333Y-160138095D01*
X105333333Y-160376191D01*
X105380952Y-160471429D01*
X105428571Y-160519048D01*
X105523810Y-160566667D01*
X105761905Y-160566667D01*
X105857143Y-160519048D01*
X105904762Y-160471429D01*
X105952381Y-160376191D01*
X105952381Y-160138095D01*
X105904762Y-160042857D01*
X105857143Y-159995238D01*
X104952381Y-188566667D02*
X105666667Y-188566667D01*
X105809524Y-188519047D01*
X105904762Y-188423809D01*
X105952381Y-188280952D01*
X105952381Y-188185714D01*
X105952381Y-189042857D02*
X104952381Y-189042857D01*
X104952381Y-189423810D01*
X105000000Y-189519048D01*
X105047619Y-189566667D01*
X105142857Y-189614286D01*
X105285714Y-189614286D01*
X105380952Y-189566667D01*
X105428571Y-189519048D01*
X105476190Y-189423810D01*
X105476190Y-189042857D01*
X104952381Y-190471429D02*
X104952381Y-190280952D01*
X105000000Y-190185714D01*
X105047619Y-190138095D01*
X105190476Y-190042857D01*
X105380952Y-189995238D01*
X105761905Y-189995238D01*
X105857143Y-190042857D01*
X105904762Y-190090476D01*
X105952381Y-190185714D01*
X105952381Y-190376191D01*
X105904762Y-190471429D01*
X105857143Y-190519048D01*
X105761905Y-190566667D01*
X105523810Y-190566667D01*
X105428571Y-190519048D01*
X105380952Y-190471429D01*
X105333333Y-190376191D01*
X105333333Y-190185714D01*
X105380952Y-190090476D01*
X105428571Y-190042857D01*
X105523810Y-189995238D01*
X104952381Y-218566667D02*
X105666667Y-218566667D01*
X105809524Y-218519047D01*
X105904762Y-218423809D01*
X105952381Y-218280952D01*
X105952381Y-218185714D01*
X105952381Y-219042857D02*
X104952381Y-219042857D01*
X104952381Y-219423810D01*
X105000000Y-219519048D01*
X105047619Y-219566667D01*
X105142857Y-219614286D01*
X105285714Y-219614286D01*
X105380952Y-219566667D01*
X105428571Y-219519048D01*
X105476190Y-219423810D01*
X105476190Y-219042857D01*
X104952381Y-219947619D02*
X104952381Y-220614286D01*
X105952381Y-220185714D01*
M02*
