G04 #@! TF.FileFunction,Legend,Top*
%FSLAX46Y46*%
G04 Gerber Fmt 4.6, Leading zero omitted, Abs format (unit mm)*
G04 Created by KiCad (PCBNEW 4.0.4+dfsg1-stable) date Fri Sep 30 19:59:36 2016*
%MOMM*%
%LPD*%
G01*
G04 APERTURE LIST*
%ADD10C,0.150000*%
G04 APERTURE END LIST*
D10*
X78430000Y-100030000D02*
X80970000Y-100030000D01*
X80970000Y-100030000D02*
X80970000Y-153370000D01*
X80970000Y-153370000D02*
X78430000Y-153370000D01*
X78430000Y-153370000D02*
X78430000Y-100030000D01*
X105502630Y-29400000D02*
G75*
G03X105502630Y-29400000I-1902630J0D01*
G01*
X105100000Y-26900000D02*
X106100000Y-27900000D01*
X106100000Y-31900000D02*
X106100000Y-26900000D01*
X106100000Y-26900000D02*
X101100000Y-26900000D01*
X101100000Y-26900000D02*
X101100000Y-31900000D01*
X101100000Y-31900000D02*
X106100000Y-31900000D01*
X115502630Y-29400000D02*
G75*
G03X115502630Y-29400000I-1902630J0D01*
G01*
X115100000Y-26900000D02*
X116100000Y-27900000D01*
X116100000Y-31900000D02*
X116100000Y-26900000D01*
X116100000Y-26900000D02*
X111100000Y-26900000D01*
X111100000Y-26900000D02*
X111100000Y-31900000D01*
X111100000Y-31900000D02*
X116100000Y-31900000D01*
X125502630Y-29400000D02*
G75*
G03X125502630Y-29400000I-1902630J0D01*
G01*
X125100000Y-26900000D02*
X126100000Y-27900000D01*
X126100000Y-31900000D02*
X126100000Y-26900000D01*
X126100000Y-26900000D02*
X121100000Y-26900000D01*
X121100000Y-26900000D02*
X121100000Y-31900000D01*
X121100000Y-31900000D02*
X126100000Y-31900000D01*
X105502630Y-39400000D02*
G75*
G03X105502630Y-39400000I-1902630J0D01*
G01*
X105100000Y-36900000D02*
X106100000Y-37900000D01*
X106100000Y-41900000D02*
X106100000Y-36900000D01*
X106100000Y-36900000D02*
X101100000Y-36900000D01*
X101100000Y-36900000D02*
X101100000Y-41900000D01*
X101100000Y-41900000D02*
X106100000Y-41900000D01*
X115502630Y-39400000D02*
G75*
G03X115502630Y-39400000I-1902630J0D01*
G01*
X115100000Y-36900000D02*
X116100000Y-37900000D01*
X116100000Y-41900000D02*
X116100000Y-36900000D01*
X116100000Y-36900000D02*
X111100000Y-36900000D01*
X111100000Y-36900000D02*
X111100000Y-41900000D01*
X111100000Y-41900000D02*
X116100000Y-41900000D01*
X125502630Y-39400000D02*
G75*
G03X125502630Y-39400000I-1902630J0D01*
G01*
X125100000Y-36900000D02*
X126100000Y-37900000D01*
X126100000Y-41900000D02*
X126100000Y-36900000D01*
X126100000Y-36900000D02*
X121100000Y-36900000D01*
X121100000Y-36900000D02*
X121100000Y-41900000D01*
X121100000Y-41900000D02*
X126100000Y-41900000D01*
X105502630Y-49400000D02*
G75*
G03X105502630Y-49400000I-1902630J0D01*
G01*
X105100000Y-46900000D02*
X106100000Y-47900000D01*
X106100000Y-51900000D02*
X106100000Y-46900000D01*
X106100000Y-46900000D02*
X101100000Y-46900000D01*
X101100000Y-46900000D02*
X101100000Y-51900000D01*
X101100000Y-51900000D02*
X106100000Y-51900000D01*
X115502630Y-49400000D02*
G75*
G03X115502630Y-49400000I-1902630J0D01*
G01*
X115100000Y-46900000D02*
X116100000Y-47900000D01*
X116100000Y-51900000D02*
X116100000Y-46900000D01*
X116100000Y-46900000D02*
X111100000Y-46900000D01*
X111100000Y-46900000D02*
X111100000Y-51900000D01*
X111100000Y-51900000D02*
X116100000Y-51900000D01*
X125502630Y-49400000D02*
G75*
G03X125502630Y-49400000I-1902630J0D01*
G01*
X125100000Y-46900000D02*
X126100000Y-47900000D01*
X126100000Y-51900000D02*
X126100000Y-46900000D01*
X126100000Y-46900000D02*
X121100000Y-46900000D01*
X121100000Y-46900000D02*
X121100000Y-51900000D01*
X121100000Y-51900000D02*
X126100000Y-51900000D01*
X105502630Y-59400000D02*
G75*
G03X105502630Y-59400000I-1902630J0D01*
G01*
X105100000Y-56900000D02*
X106100000Y-57900000D01*
X106100000Y-61900000D02*
X106100000Y-56900000D01*
X106100000Y-56900000D02*
X101100000Y-56900000D01*
X101100000Y-56900000D02*
X101100000Y-61900000D01*
X101100000Y-61900000D02*
X106100000Y-61900000D01*
X115502630Y-59400000D02*
G75*
G03X115502630Y-59400000I-1902630J0D01*
G01*
X115100000Y-56900000D02*
X116100000Y-57900000D01*
X116100000Y-61900000D02*
X116100000Y-56900000D01*
X116100000Y-56900000D02*
X111100000Y-56900000D01*
X111100000Y-56900000D02*
X111100000Y-61900000D01*
X111100000Y-61900000D02*
X116100000Y-61900000D01*
X125502630Y-59400000D02*
G75*
G03X125502630Y-59400000I-1902630J0D01*
G01*
X125100000Y-56900000D02*
X126100000Y-57900000D01*
X126100000Y-61900000D02*
X126100000Y-56900000D01*
X126100000Y-56900000D02*
X121100000Y-56900000D01*
X121100000Y-56900000D02*
X121100000Y-61900000D01*
X121100000Y-61900000D02*
X126100000Y-61900000D01*
X105502630Y-69400000D02*
G75*
G03X105502630Y-69400000I-1902630J0D01*
G01*
X105100000Y-66900000D02*
X106100000Y-67900000D01*
X106100000Y-71900000D02*
X106100000Y-66900000D01*
X106100000Y-66900000D02*
X101100000Y-66900000D01*
X101100000Y-66900000D02*
X101100000Y-71900000D01*
X101100000Y-71900000D02*
X106100000Y-71900000D01*
X115502630Y-69400000D02*
G75*
G03X115502630Y-69400000I-1902630J0D01*
G01*
X115100000Y-66900000D02*
X116100000Y-67900000D01*
X116100000Y-71900000D02*
X116100000Y-66900000D01*
X116100000Y-66900000D02*
X111100000Y-66900000D01*
X111100000Y-66900000D02*
X111100000Y-71900000D01*
X111100000Y-71900000D02*
X116100000Y-71900000D01*
X125502630Y-69400000D02*
G75*
G03X125502630Y-69400000I-1902630J0D01*
G01*
X125100000Y-66900000D02*
X126100000Y-67900000D01*
X126100000Y-71900000D02*
X126100000Y-66900000D01*
X126100000Y-66900000D02*
X121100000Y-66900000D01*
X121100000Y-66900000D02*
X121100000Y-71900000D01*
X121100000Y-71900000D02*
X126100000Y-71900000D01*
X105502630Y-79400000D02*
G75*
G03X105502630Y-79400000I-1902630J0D01*
G01*
X105100000Y-76900000D02*
X106100000Y-77900000D01*
X106100000Y-81900000D02*
X106100000Y-76900000D01*
X106100000Y-76900000D02*
X101100000Y-76900000D01*
X101100000Y-76900000D02*
X101100000Y-81900000D01*
X101100000Y-81900000D02*
X106100000Y-81900000D01*
X115502630Y-79400000D02*
G75*
G03X115502630Y-79400000I-1902630J0D01*
G01*
X115100000Y-76900000D02*
X116100000Y-77900000D01*
X116100000Y-81900000D02*
X116100000Y-76900000D01*
X116100000Y-76900000D02*
X111100000Y-76900000D01*
X111100000Y-76900000D02*
X111100000Y-81900000D01*
X111100000Y-81900000D02*
X116100000Y-81900000D01*
X125502630Y-79400000D02*
G75*
G03X125502630Y-79400000I-1902630J0D01*
G01*
X125100000Y-76900000D02*
X126100000Y-77900000D01*
X126100000Y-81900000D02*
X126100000Y-76900000D01*
X126100000Y-76900000D02*
X121100000Y-76900000D01*
X121100000Y-76900000D02*
X121100000Y-81900000D01*
X121100000Y-81900000D02*
X126100000Y-81900000D01*
X105502630Y-89400000D02*
G75*
G03X105502630Y-89400000I-1902630J0D01*
G01*
X105100000Y-86900000D02*
X106100000Y-87900000D01*
X106100000Y-91900000D02*
X106100000Y-86900000D01*
X106100000Y-86900000D02*
X101100000Y-86900000D01*
X101100000Y-86900000D02*
X101100000Y-91900000D01*
X101100000Y-91900000D02*
X106100000Y-91900000D01*
X115502630Y-89400000D02*
G75*
G03X115502630Y-89400000I-1902630J0D01*
G01*
X115100000Y-86900000D02*
X116100000Y-87900000D01*
X116100000Y-91900000D02*
X116100000Y-86900000D01*
X116100000Y-86900000D02*
X111100000Y-86900000D01*
X111100000Y-86900000D02*
X111100000Y-91900000D01*
X111100000Y-91900000D02*
X116100000Y-91900000D01*
X125502630Y-89400000D02*
G75*
G03X125502630Y-89400000I-1902630J0D01*
G01*
X125100000Y-86900000D02*
X126100000Y-87900000D01*
X126100000Y-91900000D02*
X126100000Y-86900000D01*
X126100000Y-86900000D02*
X121100000Y-86900000D01*
X121100000Y-86900000D02*
X121100000Y-91900000D01*
X121100000Y-91900000D02*
X126100000Y-91900000D01*
X105502630Y-99400000D02*
G75*
G03X105502630Y-99400000I-1902630J0D01*
G01*
X105100000Y-96900000D02*
X106100000Y-97900000D01*
X106100000Y-101900000D02*
X106100000Y-96900000D01*
X106100000Y-96900000D02*
X101100000Y-96900000D01*
X101100000Y-96900000D02*
X101100000Y-101900000D01*
X101100000Y-101900000D02*
X106100000Y-101900000D01*
X115502630Y-99400000D02*
G75*
G03X115502630Y-99400000I-1902630J0D01*
G01*
X115100000Y-96900000D02*
X116100000Y-97900000D01*
X116100000Y-101900000D02*
X116100000Y-96900000D01*
X116100000Y-96900000D02*
X111100000Y-96900000D01*
X111100000Y-96900000D02*
X111100000Y-101900000D01*
X111100000Y-101900000D02*
X116100000Y-101900000D01*
X125502630Y-99400000D02*
G75*
G03X125502630Y-99400000I-1902630J0D01*
G01*
X125100000Y-96900000D02*
X126100000Y-97900000D01*
X126100000Y-101900000D02*
X126100000Y-96900000D01*
X126100000Y-96900000D02*
X121100000Y-96900000D01*
X121100000Y-96900000D02*
X121100000Y-101900000D01*
X121100000Y-101900000D02*
X126100000Y-101900000D01*
X105502630Y-109400000D02*
G75*
G03X105502630Y-109400000I-1902630J0D01*
G01*
X105100000Y-106900000D02*
X106100000Y-107900000D01*
X106100000Y-111900000D02*
X106100000Y-106900000D01*
X106100000Y-106900000D02*
X101100000Y-106900000D01*
X101100000Y-106900000D02*
X101100000Y-111900000D01*
X101100000Y-111900000D02*
X106100000Y-111900000D01*
X115502630Y-109400000D02*
G75*
G03X115502630Y-109400000I-1902630J0D01*
G01*
X115100000Y-106900000D02*
X116100000Y-107900000D01*
X116100000Y-111900000D02*
X116100000Y-106900000D01*
X116100000Y-106900000D02*
X111100000Y-106900000D01*
X111100000Y-106900000D02*
X111100000Y-111900000D01*
X111100000Y-111900000D02*
X116100000Y-111900000D01*
X125502630Y-109400000D02*
G75*
G03X125502630Y-109400000I-1902630J0D01*
G01*
X125100000Y-106900000D02*
X126100000Y-107900000D01*
X126100000Y-111900000D02*
X126100000Y-106900000D01*
X126100000Y-106900000D02*
X121100000Y-106900000D01*
X121100000Y-106900000D02*
X121100000Y-111900000D01*
X121100000Y-111900000D02*
X126100000Y-111900000D01*
X105502630Y-119400000D02*
G75*
G03X105502630Y-119400000I-1902630J0D01*
G01*
X105100000Y-116900000D02*
X106100000Y-117900000D01*
X106100000Y-121900000D02*
X106100000Y-116900000D01*
X106100000Y-116900000D02*
X101100000Y-116900000D01*
X101100000Y-116900000D02*
X101100000Y-121900000D01*
X101100000Y-121900000D02*
X106100000Y-121900000D01*
X115502630Y-119400000D02*
G75*
G03X115502630Y-119400000I-1902630J0D01*
G01*
X115100000Y-116900000D02*
X116100000Y-117900000D01*
X116100000Y-121900000D02*
X116100000Y-116900000D01*
X116100000Y-116900000D02*
X111100000Y-116900000D01*
X111100000Y-116900000D02*
X111100000Y-121900000D01*
X111100000Y-121900000D02*
X116100000Y-121900000D01*
X125502630Y-119400000D02*
G75*
G03X125502630Y-119400000I-1902630J0D01*
G01*
X125100000Y-116900000D02*
X126100000Y-117900000D01*
X126100000Y-121900000D02*
X126100000Y-116900000D01*
X126100000Y-116900000D02*
X121100000Y-116900000D01*
X121100000Y-116900000D02*
X121100000Y-121900000D01*
X121100000Y-121900000D02*
X126100000Y-121900000D01*
X105502630Y-129400000D02*
G75*
G03X105502630Y-129400000I-1902630J0D01*
G01*
X105100000Y-126900000D02*
X106100000Y-127900000D01*
X106100000Y-131900000D02*
X106100000Y-126900000D01*
X106100000Y-126900000D02*
X101100000Y-126900000D01*
X101100000Y-126900000D02*
X101100000Y-131900000D01*
X101100000Y-131900000D02*
X106100000Y-131900000D01*
X115502630Y-129400000D02*
G75*
G03X115502630Y-129400000I-1902630J0D01*
G01*
X115100000Y-126900000D02*
X116100000Y-127900000D01*
X116100000Y-131900000D02*
X116100000Y-126900000D01*
X116100000Y-126900000D02*
X111100000Y-126900000D01*
X111100000Y-126900000D02*
X111100000Y-131900000D01*
X111100000Y-131900000D02*
X116100000Y-131900000D01*
X125502630Y-129400000D02*
G75*
G03X125502630Y-129400000I-1902630J0D01*
G01*
X125100000Y-126900000D02*
X126100000Y-127900000D01*
X126100000Y-131900000D02*
X126100000Y-126900000D01*
X126100000Y-126900000D02*
X121100000Y-126900000D01*
X121100000Y-126900000D02*
X121100000Y-131900000D01*
X121100000Y-131900000D02*
X126100000Y-131900000D01*
X105502630Y-139400000D02*
G75*
G03X105502630Y-139400000I-1902630J0D01*
G01*
X105100000Y-136900000D02*
X106100000Y-137900000D01*
X106100000Y-141900000D02*
X106100000Y-136900000D01*
X106100000Y-136900000D02*
X101100000Y-136900000D01*
X101100000Y-136900000D02*
X101100000Y-141900000D01*
X101100000Y-141900000D02*
X106100000Y-141900000D01*
X115502630Y-139400000D02*
G75*
G03X115502630Y-139400000I-1902630J0D01*
G01*
X115100000Y-136900000D02*
X116100000Y-137900000D01*
X116100000Y-141900000D02*
X116100000Y-136900000D01*
X116100000Y-136900000D02*
X111100000Y-136900000D01*
X111100000Y-136900000D02*
X111100000Y-141900000D01*
X111100000Y-141900000D02*
X116100000Y-141900000D01*
X125502630Y-139400000D02*
G75*
G03X125502630Y-139400000I-1902630J0D01*
G01*
X125100000Y-136900000D02*
X126100000Y-137900000D01*
X126100000Y-141900000D02*
X126100000Y-136900000D01*
X126100000Y-136900000D02*
X121100000Y-136900000D01*
X121100000Y-136900000D02*
X121100000Y-141900000D01*
X121100000Y-141900000D02*
X126100000Y-141900000D01*
X105502630Y-149400000D02*
G75*
G03X105502630Y-149400000I-1902630J0D01*
G01*
X105100000Y-146900000D02*
X106100000Y-147900000D01*
X106100000Y-151900000D02*
X106100000Y-146900000D01*
X106100000Y-146900000D02*
X101100000Y-146900000D01*
X101100000Y-146900000D02*
X101100000Y-151900000D01*
X101100000Y-151900000D02*
X106100000Y-151900000D01*
X115502630Y-149400000D02*
G75*
G03X115502630Y-149400000I-1902630J0D01*
G01*
X115100000Y-146900000D02*
X116100000Y-147900000D01*
X116100000Y-151900000D02*
X116100000Y-146900000D01*
X116100000Y-146900000D02*
X111100000Y-146900000D01*
X111100000Y-146900000D02*
X111100000Y-151900000D01*
X111100000Y-151900000D02*
X116100000Y-151900000D01*
X125502630Y-149400000D02*
G75*
G03X125502630Y-149400000I-1902630J0D01*
G01*
X125100000Y-146900000D02*
X126100000Y-147900000D01*
X126100000Y-151900000D02*
X126100000Y-146900000D01*
X126100000Y-146900000D02*
X121100000Y-146900000D01*
X121100000Y-146900000D02*
X121100000Y-151900000D01*
X121100000Y-151900000D02*
X126100000Y-151900000D01*
X105502630Y-159400000D02*
G75*
G03X105502630Y-159400000I-1902630J0D01*
G01*
X105100000Y-156900000D02*
X106100000Y-157900000D01*
X106100000Y-161900000D02*
X106100000Y-156900000D01*
X106100000Y-156900000D02*
X101100000Y-156900000D01*
X101100000Y-156900000D02*
X101100000Y-161900000D01*
X101100000Y-161900000D02*
X106100000Y-161900000D01*
X115502630Y-159400000D02*
G75*
G03X115502630Y-159400000I-1902630J0D01*
G01*
X115100000Y-156900000D02*
X116100000Y-157900000D01*
X116100000Y-161900000D02*
X116100000Y-156900000D01*
X116100000Y-156900000D02*
X111100000Y-156900000D01*
X111100000Y-156900000D02*
X111100000Y-161900000D01*
X111100000Y-161900000D02*
X116100000Y-161900000D01*
X125502630Y-159400000D02*
G75*
G03X125502630Y-159400000I-1902630J0D01*
G01*
X125100000Y-156900000D02*
X126100000Y-157900000D01*
X126100000Y-161900000D02*
X126100000Y-156900000D01*
X126100000Y-156900000D02*
X121100000Y-156900000D01*
X121100000Y-156900000D02*
X121100000Y-161900000D01*
X121100000Y-161900000D02*
X126100000Y-161900000D01*
X105502630Y-169400000D02*
G75*
G03X105502630Y-169400000I-1902630J0D01*
G01*
X105100000Y-166900000D02*
X106100000Y-167900000D01*
X106100000Y-171900000D02*
X106100000Y-166900000D01*
X106100000Y-166900000D02*
X101100000Y-166900000D01*
X101100000Y-166900000D02*
X101100000Y-171900000D01*
X101100000Y-171900000D02*
X106100000Y-171900000D01*
X115502630Y-169400000D02*
G75*
G03X115502630Y-169400000I-1902630J0D01*
G01*
X115100000Y-166900000D02*
X116100000Y-167900000D01*
X116100000Y-171900000D02*
X116100000Y-166900000D01*
X116100000Y-166900000D02*
X111100000Y-166900000D01*
X111100000Y-166900000D02*
X111100000Y-171900000D01*
X111100000Y-171900000D02*
X116100000Y-171900000D01*
X125502630Y-169400000D02*
G75*
G03X125502630Y-169400000I-1902630J0D01*
G01*
X125100000Y-166900000D02*
X126100000Y-167900000D01*
X126100000Y-171900000D02*
X126100000Y-166900000D01*
X126100000Y-166900000D02*
X121100000Y-166900000D01*
X121100000Y-166900000D02*
X121100000Y-171900000D01*
X121100000Y-171900000D02*
X126100000Y-171900000D01*
X105502630Y-179400000D02*
G75*
G03X105502630Y-179400000I-1902630J0D01*
G01*
X105100000Y-176900000D02*
X106100000Y-177900000D01*
X106100000Y-181900000D02*
X106100000Y-176900000D01*
X106100000Y-176900000D02*
X101100000Y-176900000D01*
X101100000Y-176900000D02*
X101100000Y-181900000D01*
X101100000Y-181900000D02*
X106100000Y-181900000D01*
X115502630Y-179400000D02*
G75*
G03X115502630Y-179400000I-1902630J0D01*
G01*
X115100000Y-176900000D02*
X116100000Y-177900000D01*
X116100000Y-181900000D02*
X116100000Y-176900000D01*
X116100000Y-176900000D02*
X111100000Y-176900000D01*
X111100000Y-176900000D02*
X111100000Y-181900000D01*
X111100000Y-181900000D02*
X116100000Y-181900000D01*
X125502630Y-179400000D02*
G75*
G03X125502630Y-179400000I-1902630J0D01*
G01*
X125100000Y-176900000D02*
X126100000Y-177900000D01*
X126100000Y-181900000D02*
X126100000Y-176900000D01*
X126100000Y-176900000D02*
X121100000Y-176900000D01*
X121100000Y-176900000D02*
X121100000Y-181900000D01*
X121100000Y-181900000D02*
X126100000Y-181900000D01*
X105502630Y-189400000D02*
G75*
G03X105502630Y-189400000I-1902630J0D01*
G01*
X105100000Y-186900000D02*
X106100000Y-187900000D01*
X106100000Y-191900000D02*
X106100000Y-186900000D01*
X106100000Y-186900000D02*
X101100000Y-186900000D01*
X101100000Y-186900000D02*
X101100000Y-191900000D01*
X101100000Y-191900000D02*
X106100000Y-191900000D01*
X115502630Y-189400000D02*
G75*
G03X115502630Y-189400000I-1902630J0D01*
G01*
X115100000Y-186900000D02*
X116100000Y-187900000D01*
X116100000Y-191900000D02*
X116100000Y-186900000D01*
X116100000Y-186900000D02*
X111100000Y-186900000D01*
X111100000Y-186900000D02*
X111100000Y-191900000D01*
X111100000Y-191900000D02*
X116100000Y-191900000D01*
X125502630Y-189400000D02*
G75*
G03X125502630Y-189400000I-1902630J0D01*
G01*
X125100000Y-186900000D02*
X126100000Y-187900000D01*
X126100000Y-191900000D02*
X126100000Y-186900000D01*
X126100000Y-186900000D02*
X121100000Y-186900000D01*
X121100000Y-186900000D02*
X121100000Y-191900000D01*
X121100000Y-191900000D02*
X126100000Y-191900000D01*
X105502630Y-199400000D02*
G75*
G03X105502630Y-199400000I-1902630J0D01*
G01*
X105100000Y-196900000D02*
X106100000Y-197900000D01*
X106100000Y-201900000D02*
X106100000Y-196900000D01*
X106100000Y-196900000D02*
X101100000Y-196900000D01*
X101100000Y-196900000D02*
X101100000Y-201900000D01*
X101100000Y-201900000D02*
X106100000Y-201900000D01*
X115502630Y-199400000D02*
G75*
G03X115502630Y-199400000I-1902630J0D01*
G01*
X115100000Y-196900000D02*
X116100000Y-197900000D01*
X116100000Y-201900000D02*
X116100000Y-196900000D01*
X116100000Y-196900000D02*
X111100000Y-196900000D01*
X111100000Y-196900000D02*
X111100000Y-201900000D01*
X111100000Y-201900000D02*
X116100000Y-201900000D01*
X125502630Y-199400000D02*
G75*
G03X125502630Y-199400000I-1902630J0D01*
G01*
X125100000Y-196900000D02*
X126100000Y-197900000D01*
X126100000Y-201900000D02*
X126100000Y-196900000D01*
X126100000Y-196900000D02*
X121100000Y-196900000D01*
X121100000Y-196900000D02*
X121100000Y-201900000D01*
X121100000Y-201900000D02*
X126100000Y-201900000D01*
X105502630Y-209400000D02*
G75*
G03X105502630Y-209400000I-1902630J0D01*
G01*
X105100000Y-206900000D02*
X106100000Y-207900000D01*
X106100000Y-211900000D02*
X106100000Y-206900000D01*
X106100000Y-206900000D02*
X101100000Y-206900000D01*
X101100000Y-206900000D02*
X101100000Y-211900000D01*
X101100000Y-211900000D02*
X106100000Y-211900000D01*
X115502630Y-209400000D02*
G75*
G03X115502630Y-209400000I-1902630J0D01*
G01*
X115100000Y-206900000D02*
X116100000Y-207900000D01*
X116100000Y-211900000D02*
X116100000Y-206900000D01*
X116100000Y-206900000D02*
X111100000Y-206900000D01*
X111100000Y-206900000D02*
X111100000Y-211900000D01*
X111100000Y-211900000D02*
X116100000Y-211900000D01*
X125502630Y-209400000D02*
G75*
G03X125502630Y-209400000I-1902630J0D01*
G01*
X125100000Y-206900000D02*
X126100000Y-207900000D01*
X126100000Y-211900000D02*
X126100000Y-206900000D01*
X126100000Y-206900000D02*
X121100000Y-206900000D01*
X121100000Y-206900000D02*
X121100000Y-211900000D01*
X121100000Y-211900000D02*
X126100000Y-211900000D01*
X105502630Y-219400000D02*
G75*
G03X105502630Y-219400000I-1902630J0D01*
G01*
X105100000Y-216900000D02*
X106100000Y-217900000D01*
X106100000Y-221900000D02*
X106100000Y-216900000D01*
X106100000Y-216900000D02*
X101100000Y-216900000D01*
X101100000Y-216900000D02*
X101100000Y-221900000D01*
X101100000Y-221900000D02*
X106100000Y-221900000D01*
X115502630Y-219400000D02*
G75*
G03X115502630Y-219400000I-1902630J0D01*
G01*
X115100000Y-216900000D02*
X116100000Y-217900000D01*
X116100000Y-221900000D02*
X116100000Y-216900000D01*
X116100000Y-216900000D02*
X111100000Y-216900000D01*
X111100000Y-216900000D02*
X111100000Y-221900000D01*
X111100000Y-221900000D02*
X116100000Y-221900000D01*
X125502630Y-219400000D02*
G75*
G03X125502630Y-219400000I-1902630J0D01*
G01*
X125100000Y-216900000D02*
X126100000Y-217900000D01*
X126100000Y-221900000D02*
X126100000Y-216900000D01*
X126100000Y-216900000D02*
X121100000Y-216900000D01*
X121100000Y-216900000D02*
X121100000Y-221900000D01*
X121100000Y-221900000D02*
X126100000Y-221900000D01*
X105502630Y-229400000D02*
G75*
G03X105502630Y-229400000I-1902630J0D01*
G01*
X105100000Y-226900000D02*
X106100000Y-227900000D01*
X106100000Y-231900000D02*
X106100000Y-226900000D01*
X106100000Y-226900000D02*
X101100000Y-226900000D01*
X101100000Y-226900000D02*
X101100000Y-231900000D01*
X101100000Y-231900000D02*
X106100000Y-231900000D01*
X115502630Y-229400000D02*
G75*
G03X115502630Y-229400000I-1902630J0D01*
G01*
X115100000Y-226900000D02*
X116100000Y-227900000D01*
X116100000Y-231900000D02*
X116100000Y-226900000D01*
X116100000Y-226900000D02*
X111100000Y-226900000D01*
X111100000Y-226900000D02*
X111100000Y-231900000D01*
X111100000Y-231900000D02*
X116100000Y-231900000D01*
X125502630Y-229400000D02*
G75*
G03X125502630Y-229400000I-1902630J0D01*
G01*
X125100000Y-226900000D02*
X126100000Y-227900000D01*
X126100000Y-231900000D02*
X126100000Y-226900000D01*
X126100000Y-226900000D02*
X121100000Y-226900000D01*
X121100000Y-226900000D02*
X121100000Y-231900000D01*
X121100000Y-231900000D02*
X126100000Y-231900000D01*
X109790000Y-240670000D02*
X109790000Y-238130000D01*
X109790000Y-238130000D02*
X117410000Y-238130000D01*
X117410000Y-238130000D02*
X117410000Y-240670000D01*
X117410000Y-240670000D02*
X109790000Y-240670000D01*
X78961905Y-155092381D02*
X78961905Y-154092381D01*
X79342858Y-154092381D01*
X79438096Y-154140000D01*
X79485715Y-154187619D01*
X79533334Y-154282857D01*
X79533334Y-154425714D01*
X79485715Y-154520952D01*
X79438096Y-154568571D01*
X79342858Y-154616190D01*
X78961905Y-154616190D01*
X80485715Y-155092381D02*
X79914286Y-155092381D01*
X80200000Y-155092381D02*
X80200000Y-154092381D01*
X80104762Y-154235238D01*
X80009524Y-154330476D01*
X79914286Y-154378095D01*
X107830381Y-30298095D02*
X106830381Y-30298095D01*
X106830381Y-30060000D01*
X106878000Y-29917142D01*
X106973238Y-29821904D01*
X107068476Y-29774285D01*
X107258952Y-29726666D01*
X107401810Y-29726666D01*
X107592286Y-29774285D01*
X107687524Y-29821904D01*
X107782762Y-29917142D01*
X107830381Y-30060000D01*
X107830381Y-30298095D01*
X107830381Y-28774285D02*
X107830381Y-29345714D01*
X107830381Y-29060000D02*
X106830381Y-29060000D01*
X106973238Y-29155238D01*
X107068476Y-29250476D01*
X107116095Y-29345714D01*
X117830381Y-30298095D02*
X116830381Y-30298095D01*
X116830381Y-30060000D01*
X116878000Y-29917142D01*
X116973238Y-29821904D01*
X117068476Y-29774285D01*
X117258952Y-29726666D01*
X117401810Y-29726666D01*
X117592286Y-29774285D01*
X117687524Y-29821904D01*
X117782762Y-29917142D01*
X117830381Y-30060000D01*
X117830381Y-30298095D01*
X116925619Y-29345714D02*
X116878000Y-29298095D01*
X116830381Y-29202857D01*
X116830381Y-28964761D01*
X116878000Y-28869523D01*
X116925619Y-28821904D01*
X117020857Y-28774285D01*
X117116095Y-28774285D01*
X117258952Y-28821904D01*
X117830381Y-29393333D01*
X117830381Y-28774285D01*
X127830381Y-30298095D02*
X126830381Y-30298095D01*
X126830381Y-30060000D01*
X126878000Y-29917142D01*
X126973238Y-29821904D01*
X127068476Y-29774285D01*
X127258952Y-29726666D01*
X127401810Y-29726666D01*
X127592286Y-29774285D01*
X127687524Y-29821904D01*
X127782762Y-29917142D01*
X127830381Y-30060000D01*
X127830381Y-30298095D01*
X126830381Y-29393333D02*
X126830381Y-28774285D01*
X127211333Y-29107619D01*
X127211333Y-28964761D01*
X127258952Y-28869523D01*
X127306571Y-28821904D01*
X127401810Y-28774285D01*
X127639905Y-28774285D01*
X127735143Y-28821904D01*
X127782762Y-28869523D01*
X127830381Y-28964761D01*
X127830381Y-29250476D01*
X127782762Y-29345714D01*
X127735143Y-29393333D01*
X107830381Y-40298095D02*
X106830381Y-40298095D01*
X106830381Y-40060000D01*
X106878000Y-39917142D01*
X106973238Y-39821904D01*
X107068476Y-39774285D01*
X107258952Y-39726666D01*
X107401810Y-39726666D01*
X107592286Y-39774285D01*
X107687524Y-39821904D01*
X107782762Y-39917142D01*
X107830381Y-40060000D01*
X107830381Y-40298095D01*
X107163714Y-38869523D02*
X107830381Y-38869523D01*
X106782762Y-39107619D02*
X107497048Y-39345714D01*
X107497048Y-38726666D01*
X117830381Y-40298095D02*
X116830381Y-40298095D01*
X116830381Y-40060000D01*
X116878000Y-39917142D01*
X116973238Y-39821904D01*
X117068476Y-39774285D01*
X117258952Y-39726666D01*
X117401810Y-39726666D01*
X117592286Y-39774285D01*
X117687524Y-39821904D01*
X117782762Y-39917142D01*
X117830381Y-40060000D01*
X117830381Y-40298095D01*
X116830381Y-38821904D02*
X116830381Y-39298095D01*
X117306571Y-39345714D01*
X117258952Y-39298095D01*
X117211333Y-39202857D01*
X117211333Y-38964761D01*
X117258952Y-38869523D01*
X117306571Y-38821904D01*
X117401810Y-38774285D01*
X117639905Y-38774285D01*
X117735143Y-38821904D01*
X117782762Y-38869523D01*
X117830381Y-38964761D01*
X117830381Y-39202857D01*
X117782762Y-39298095D01*
X117735143Y-39345714D01*
X127830381Y-40298095D02*
X126830381Y-40298095D01*
X126830381Y-40060000D01*
X126878000Y-39917142D01*
X126973238Y-39821904D01*
X127068476Y-39774285D01*
X127258952Y-39726666D01*
X127401810Y-39726666D01*
X127592286Y-39774285D01*
X127687524Y-39821904D01*
X127782762Y-39917142D01*
X127830381Y-40060000D01*
X127830381Y-40298095D01*
X126830381Y-38869523D02*
X126830381Y-39060000D01*
X126878000Y-39155238D01*
X126925619Y-39202857D01*
X127068476Y-39298095D01*
X127258952Y-39345714D01*
X127639905Y-39345714D01*
X127735143Y-39298095D01*
X127782762Y-39250476D01*
X127830381Y-39155238D01*
X127830381Y-38964761D01*
X127782762Y-38869523D01*
X127735143Y-38821904D01*
X127639905Y-38774285D01*
X127401810Y-38774285D01*
X127306571Y-38821904D01*
X127258952Y-38869523D01*
X127211333Y-38964761D01*
X127211333Y-39155238D01*
X127258952Y-39250476D01*
X127306571Y-39298095D01*
X127401810Y-39345714D01*
X107830381Y-50298095D02*
X106830381Y-50298095D01*
X106830381Y-50060000D01*
X106878000Y-49917142D01*
X106973238Y-49821904D01*
X107068476Y-49774285D01*
X107258952Y-49726666D01*
X107401810Y-49726666D01*
X107592286Y-49774285D01*
X107687524Y-49821904D01*
X107782762Y-49917142D01*
X107830381Y-50060000D01*
X107830381Y-50298095D01*
X106830381Y-49393333D02*
X106830381Y-48726666D01*
X107830381Y-49155238D01*
X117830381Y-50298095D02*
X116830381Y-50298095D01*
X116830381Y-50060000D01*
X116878000Y-49917142D01*
X116973238Y-49821904D01*
X117068476Y-49774285D01*
X117258952Y-49726666D01*
X117401810Y-49726666D01*
X117592286Y-49774285D01*
X117687524Y-49821904D01*
X117782762Y-49917142D01*
X117830381Y-50060000D01*
X117830381Y-50298095D01*
X117258952Y-49155238D02*
X117211333Y-49250476D01*
X117163714Y-49298095D01*
X117068476Y-49345714D01*
X117020857Y-49345714D01*
X116925619Y-49298095D01*
X116878000Y-49250476D01*
X116830381Y-49155238D01*
X116830381Y-48964761D01*
X116878000Y-48869523D01*
X116925619Y-48821904D01*
X117020857Y-48774285D01*
X117068476Y-48774285D01*
X117163714Y-48821904D01*
X117211333Y-48869523D01*
X117258952Y-48964761D01*
X117258952Y-49155238D01*
X117306571Y-49250476D01*
X117354190Y-49298095D01*
X117449429Y-49345714D01*
X117639905Y-49345714D01*
X117735143Y-49298095D01*
X117782762Y-49250476D01*
X117830381Y-49155238D01*
X117830381Y-48964761D01*
X117782762Y-48869523D01*
X117735143Y-48821904D01*
X117639905Y-48774285D01*
X117449429Y-48774285D01*
X117354190Y-48821904D01*
X117306571Y-48869523D01*
X117258952Y-48964761D01*
X127830381Y-50298095D02*
X126830381Y-50298095D01*
X126830381Y-50060000D01*
X126878000Y-49917142D01*
X126973238Y-49821904D01*
X127068476Y-49774285D01*
X127258952Y-49726666D01*
X127401810Y-49726666D01*
X127592286Y-49774285D01*
X127687524Y-49821904D01*
X127782762Y-49917142D01*
X127830381Y-50060000D01*
X127830381Y-50298095D01*
X127830381Y-49250476D02*
X127830381Y-49060000D01*
X127782762Y-48964761D01*
X127735143Y-48917142D01*
X127592286Y-48821904D01*
X127401810Y-48774285D01*
X127020857Y-48774285D01*
X126925619Y-48821904D01*
X126878000Y-48869523D01*
X126830381Y-48964761D01*
X126830381Y-49155238D01*
X126878000Y-49250476D01*
X126925619Y-49298095D01*
X127020857Y-49345714D01*
X127258952Y-49345714D01*
X127354190Y-49298095D01*
X127401810Y-49250476D01*
X127449429Y-49155238D01*
X127449429Y-48964761D01*
X127401810Y-48869523D01*
X127354190Y-48821904D01*
X127258952Y-48774285D01*
X107830381Y-60774286D02*
X106830381Y-60774286D01*
X106830381Y-60536191D01*
X106878000Y-60393333D01*
X106973238Y-60298095D01*
X107068476Y-60250476D01*
X107258952Y-60202857D01*
X107401810Y-60202857D01*
X107592286Y-60250476D01*
X107687524Y-60298095D01*
X107782762Y-60393333D01*
X107830381Y-60536191D01*
X107830381Y-60774286D01*
X107830381Y-59250476D02*
X107830381Y-59821905D01*
X107830381Y-59536191D02*
X106830381Y-59536191D01*
X106973238Y-59631429D01*
X107068476Y-59726667D01*
X107116095Y-59821905D01*
X106830381Y-58631429D02*
X106830381Y-58536190D01*
X106878000Y-58440952D01*
X106925619Y-58393333D01*
X107020857Y-58345714D01*
X107211333Y-58298095D01*
X107449429Y-58298095D01*
X107639905Y-58345714D01*
X107735143Y-58393333D01*
X107782762Y-58440952D01*
X107830381Y-58536190D01*
X107830381Y-58631429D01*
X107782762Y-58726667D01*
X107735143Y-58774286D01*
X107639905Y-58821905D01*
X107449429Y-58869524D01*
X107211333Y-58869524D01*
X107020857Y-58821905D01*
X106925619Y-58774286D01*
X106878000Y-58726667D01*
X106830381Y-58631429D01*
X117830381Y-60774286D02*
X116830381Y-60774286D01*
X116830381Y-60536191D01*
X116878000Y-60393333D01*
X116973238Y-60298095D01*
X117068476Y-60250476D01*
X117258952Y-60202857D01*
X117401810Y-60202857D01*
X117592286Y-60250476D01*
X117687524Y-60298095D01*
X117782762Y-60393333D01*
X117830381Y-60536191D01*
X117830381Y-60774286D01*
X117830381Y-59250476D02*
X117830381Y-59821905D01*
X117830381Y-59536191D02*
X116830381Y-59536191D01*
X116973238Y-59631429D01*
X117068476Y-59726667D01*
X117116095Y-59821905D01*
X117830381Y-58298095D02*
X117830381Y-58869524D01*
X117830381Y-58583810D02*
X116830381Y-58583810D01*
X116973238Y-58679048D01*
X117068476Y-58774286D01*
X117116095Y-58869524D01*
X127830381Y-60774286D02*
X126830381Y-60774286D01*
X126830381Y-60536191D01*
X126878000Y-60393333D01*
X126973238Y-60298095D01*
X127068476Y-60250476D01*
X127258952Y-60202857D01*
X127401810Y-60202857D01*
X127592286Y-60250476D01*
X127687524Y-60298095D01*
X127782762Y-60393333D01*
X127830381Y-60536191D01*
X127830381Y-60774286D01*
X127830381Y-59250476D02*
X127830381Y-59821905D01*
X127830381Y-59536191D02*
X126830381Y-59536191D01*
X126973238Y-59631429D01*
X127068476Y-59726667D01*
X127116095Y-59821905D01*
X126925619Y-58869524D02*
X126878000Y-58821905D01*
X126830381Y-58726667D01*
X126830381Y-58488571D01*
X126878000Y-58393333D01*
X126925619Y-58345714D01*
X127020857Y-58298095D01*
X127116095Y-58298095D01*
X127258952Y-58345714D01*
X127830381Y-58917143D01*
X127830381Y-58298095D01*
X107830381Y-70774286D02*
X106830381Y-70774286D01*
X106830381Y-70536191D01*
X106878000Y-70393333D01*
X106973238Y-70298095D01*
X107068476Y-70250476D01*
X107258952Y-70202857D01*
X107401810Y-70202857D01*
X107592286Y-70250476D01*
X107687524Y-70298095D01*
X107782762Y-70393333D01*
X107830381Y-70536191D01*
X107830381Y-70774286D01*
X107830381Y-69250476D02*
X107830381Y-69821905D01*
X107830381Y-69536191D02*
X106830381Y-69536191D01*
X106973238Y-69631429D01*
X107068476Y-69726667D01*
X107116095Y-69821905D01*
X106830381Y-68917143D02*
X106830381Y-68298095D01*
X107211333Y-68631429D01*
X107211333Y-68488571D01*
X107258952Y-68393333D01*
X107306571Y-68345714D01*
X107401810Y-68298095D01*
X107639905Y-68298095D01*
X107735143Y-68345714D01*
X107782762Y-68393333D01*
X107830381Y-68488571D01*
X107830381Y-68774286D01*
X107782762Y-68869524D01*
X107735143Y-68917143D01*
X117830381Y-70774286D02*
X116830381Y-70774286D01*
X116830381Y-70536191D01*
X116878000Y-70393333D01*
X116973238Y-70298095D01*
X117068476Y-70250476D01*
X117258952Y-70202857D01*
X117401810Y-70202857D01*
X117592286Y-70250476D01*
X117687524Y-70298095D01*
X117782762Y-70393333D01*
X117830381Y-70536191D01*
X117830381Y-70774286D01*
X117830381Y-69250476D02*
X117830381Y-69821905D01*
X117830381Y-69536191D02*
X116830381Y-69536191D01*
X116973238Y-69631429D01*
X117068476Y-69726667D01*
X117116095Y-69821905D01*
X117163714Y-68393333D02*
X117830381Y-68393333D01*
X116782762Y-68631429D02*
X117497048Y-68869524D01*
X117497048Y-68250476D01*
X127830381Y-70774286D02*
X126830381Y-70774286D01*
X126830381Y-70536191D01*
X126878000Y-70393333D01*
X126973238Y-70298095D01*
X127068476Y-70250476D01*
X127258952Y-70202857D01*
X127401810Y-70202857D01*
X127592286Y-70250476D01*
X127687524Y-70298095D01*
X127782762Y-70393333D01*
X127830381Y-70536191D01*
X127830381Y-70774286D01*
X127830381Y-69250476D02*
X127830381Y-69821905D01*
X127830381Y-69536191D02*
X126830381Y-69536191D01*
X126973238Y-69631429D01*
X127068476Y-69726667D01*
X127116095Y-69821905D01*
X126830381Y-68345714D02*
X126830381Y-68821905D01*
X127306571Y-68869524D01*
X127258952Y-68821905D01*
X127211333Y-68726667D01*
X127211333Y-68488571D01*
X127258952Y-68393333D01*
X127306571Y-68345714D01*
X127401810Y-68298095D01*
X127639905Y-68298095D01*
X127735143Y-68345714D01*
X127782762Y-68393333D01*
X127830381Y-68488571D01*
X127830381Y-68726667D01*
X127782762Y-68821905D01*
X127735143Y-68869524D01*
X107830381Y-80774286D02*
X106830381Y-80774286D01*
X106830381Y-80536191D01*
X106878000Y-80393333D01*
X106973238Y-80298095D01*
X107068476Y-80250476D01*
X107258952Y-80202857D01*
X107401810Y-80202857D01*
X107592286Y-80250476D01*
X107687524Y-80298095D01*
X107782762Y-80393333D01*
X107830381Y-80536191D01*
X107830381Y-80774286D01*
X107830381Y-79250476D02*
X107830381Y-79821905D01*
X107830381Y-79536191D02*
X106830381Y-79536191D01*
X106973238Y-79631429D01*
X107068476Y-79726667D01*
X107116095Y-79821905D01*
X106830381Y-78393333D02*
X106830381Y-78583810D01*
X106878000Y-78679048D01*
X106925619Y-78726667D01*
X107068476Y-78821905D01*
X107258952Y-78869524D01*
X107639905Y-78869524D01*
X107735143Y-78821905D01*
X107782762Y-78774286D01*
X107830381Y-78679048D01*
X107830381Y-78488571D01*
X107782762Y-78393333D01*
X107735143Y-78345714D01*
X107639905Y-78298095D01*
X107401810Y-78298095D01*
X107306571Y-78345714D01*
X107258952Y-78393333D01*
X107211333Y-78488571D01*
X107211333Y-78679048D01*
X107258952Y-78774286D01*
X107306571Y-78821905D01*
X107401810Y-78869524D01*
X117830381Y-80774286D02*
X116830381Y-80774286D01*
X116830381Y-80536191D01*
X116878000Y-80393333D01*
X116973238Y-80298095D01*
X117068476Y-80250476D01*
X117258952Y-80202857D01*
X117401810Y-80202857D01*
X117592286Y-80250476D01*
X117687524Y-80298095D01*
X117782762Y-80393333D01*
X117830381Y-80536191D01*
X117830381Y-80774286D01*
X117830381Y-79250476D02*
X117830381Y-79821905D01*
X117830381Y-79536191D02*
X116830381Y-79536191D01*
X116973238Y-79631429D01*
X117068476Y-79726667D01*
X117116095Y-79821905D01*
X116830381Y-78917143D02*
X116830381Y-78250476D01*
X117830381Y-78679048D01*
X127830381Y-80774286D02*
X126830381Y-80774286D01*
X126830381Y-80536191D01*
X126878000Y-80393333D01*
X126973238Y-80298095D01*
X127068476Y-80250476D01*
X127258952Y-80202857D01*
X127401810Y-80202857D01*
X127592286Y-80250476D01*
X127687524Y-80298095D01*
X127782762Y-80393333D01*
X127830381Y-80536191D01*
X127830381Y-80774286D01*
X127830381Y-79250476D02*
X127830381Y-79821905D01*
X127830381Y-79536191D02*
X126830381Y-79536191D01*
X126973238Y-79631429D01*
X127068476Y-79726667D01*
X127116095Y-79821905D01*
X127258952Y-78679048D02*
X127211333Y-78774286D01*
X127163714Y-78821905D01*
X127068476Y-78869524D01*
X127020857Y-78869524D01*
X126925619Y-78821905D01*
X126878000Y-78774286D01*
X126830381Y-78679048D01*
X126830381Y-78488571D01*
X126878000Y-78393333D01*
X126925619Y-78345714D01*
X127020857Y-78298095D01*
X127068476Y-78298095D01*
X127163714Y-78345714D01*
X127211333Y-78393333D01*
X127258952Y-78488571D01*
X127258952Y-78679048D01*
X127306571Y-78774286D01*
X127354190Y-78821905D01*
X127449429Y-78869524D01*
X127639905Y-78869524D01*
X127735143Y-78821905D01*
X127782762Y-78774286D01*
X127830381Y-78679048D01*
X127830381Y-78488571D01*
X127782762Y-78393333D01*
X127735143Y-78345714D01*
X127639905Y-78298095D01*
X127449429Y-78298095D01*
X127354190Y-78345714D01*
X127306571Y-78393333D01*
X127258952Y-78488571D01*
X107830381Y-90774286D02*
X106830381Y-90774286D01*
X106830381Y-90536191D01*
X106878000Y-90393333D01*
X106973238Y-90298095D01*
X107068476Y-90250476D01*
X107258952Y-90202857D01*
X107401810Y-90202857D01*
X107592286Y-90250476D01*
X107687524Y-90298095D01*
X107782762Y-90393333D01*
X107830381Y-90536191D01*
X107830381Y-90774286D01*
X107830381Y-89250476D02*
X107830381Y-89821905D01*
X107830381Y-89536191D02*
X106830381Y-89536191D01*
X106973238Y-89631429D01*
X107068476Y-89726667D01*
X107116095Y-89821905D01*
X107830381Y-88774286D02*
X107830381Y-88583810D01*
X107782762Y-88488571D01*
X107735143Y-88440952D01*
X107592286Y-88345714D01*
X107401810Y-88298095D01*
X107020857Y-88298095D01*
X106925619Y-88345714D01*
X106878000Y-88393333D01*
X106830381Y-88488571D01*
X106830381Y-88679048D01*
X106878000Y-88774286D01*
X106925619Y-88821905D01*
X107020857Y-88869524D01*
X107258952Y-88869524D01*
X107354190Y-88821905D01*
X107401810Y-88774286D01*
X107449429Y-88679048D01*
X107449429Y-88488571D01*
X107401810Y-88393333D01*
X107354190Y-88345714D01*
X107258952Y-88298095D01*
X117830381Y-90774286D02*
X116830381Y-90774286D01*
X116830381Y-90536191D01*
X116878000Y-90393333D01*
X116973238Y-90298095D01*
X117068476Y-90250476D01*
X117258952Y-90202857D01*
X117401810Y-90202857D01*
X117592286Y-90250476D01*
X117687524Y-90298095D01*
X117782762Y-90393333D01*
X117830381Y-90536191D01*
X117830381Y-90774286D01*
X116925619Y-89821905D02*
X116878000Y-89774286D01*
X116830381Y-89679048D01*
X116830381Y-89440952D01*
X116878000Y-89345714D01*
X116925619Y-89298095D01*
X117020857Y-89250476D01*
X117116095Y-89250476D01*
X117258952Y-89298095D01*
X117830381Y-89869524D01*
X117830381Y-89250476D01*
X116830381Y-88631429D02*
X116830381Y-88536190D01*
X116878000Y-88440952D01*
X116925619Y-88393333D01*
X117020857Y-88345714D01*
X117211333Y-88298095D01*
X117449429Y-88298095D01*
X117639905Y-88345714D01*
X117735143Y-88393333D01*
X117782762Y-88440952D01*
X117830381Y-88536190D01*
X117830381Y-88631429D01*
X117782762Y-88726667D01*
X117735143Y-88774286D01*
X117639905Y-88821905D01*
X117449429Y-88869524D01*
X117211333Y-88869524D01*
X117020857Y-88821905D01*
X116925619Y-88774286D01*
X116878000Y-88726667D01*
X116830381Y-88631429D01*
X127830381Y-90774286D02*
X126830381Y-90774286D01*
X126830381Y-90536191D01*
X126878000Y-90393333D01*
X126973238Y-90298095D01*
X127068476Y-90250476D01*
X127258952Y-90202857D01*
X127401810Y-90202857D01*
X127592286Y-90250476D01*
X127687524Y-90298095D01*
X127782762Y-90393333D01*
X127830381Y-90536191D01*
X127830381Y-90774286D01*
X126925619Y-89821905D02*
X126878000Y-89774286D01*
X126830381Y-89679048D01*
X126830381Y-89440952D01*
X126878000Y-89345714D01*
X126925619Y-89298095D01*
X127020857Y-89250476D01*
X127116095Y-89250476D01*
X127258952Y-89298095D01*
X127830381Y-89869524D01*
X127830381Y-89250476D01*
X127830381Y-88298095D02*
X127830381Y-88869524D01*
X127830381Y-88583810D02*
X126830381Y-88583810D01*
X126973238Y-88679048D01*
X127068476Y-88774286D01*
X127116095Y-88869524D01*
X107830381Y-100774286D02*
X106830381Y-100774286D01*
X106830381Y-100536191D01*
X106878000Y-100393333D01*
X106973238Y-100298095D01*
X107068476Y-100250476D01*
X107258952Y-100202857D01*
X107401810Y-100202857D01*
X107592286Y-100250476D01*
X107687524Y-100298095D01*
X107782762Y-100393333D01*
X107830381Y-100536191D01*
X107830381Y-100774286D01*
X106925619Y-99821905D02*
X106878000Y-99774286D01*
X106830381Y-99679048D01*
X106830381Y-99440952D01*
X106878000Y-99345714D01*
X106925619Y-99298095D01*
X107020857Y-99250476D01*
X107116095Y-99250476D01*
X107258952Y-99298095D01*
X107830381Y-99869524D01*
X107830381Y-99250476D01*
X106925619Y-98869524D02*
X106878000Y-98821905D01*
X106830381Y-98726667D01*
X106830381Y-98488571D01*
X106878000Y-98393333D01*
X106925619Y-98345714D01*
X107020857Y-98298095D01*
X107116095Y-98298095D01*
X107258952Y-98345714D01*
X107830381Y-98917143D01*
X107830381Y-98298095D01*
X117830381Y-100774286D02*
X116830381Y-100774286D01*
X116830381Y-100536191D01*
X116878000Y-100393333D01*
X116973238Y-100298095D01*
X117068476Y-100250476D01*
X117258952Y-100202857D01*
X117401810Y-100202857D01*
X117592286Y-100250476D01*
X117687524Y-100298095D01*
X117782762Y-100393333D01*
X117830381Y-100536191D01*
X117830381Y-100774286D01*
X116925619Y-99821905D02*
X116878000Y-99774286D01*
X116830381Y-99679048D01*
X116830381Y-99440952D01*
X116878000Y-99345714D01*
X116925619Y-99298095D01*
X117020857Y-99250476D01*
X117116095Y-99250476D01*
X117258952Y-99298095D01*
X117830381Y-99869524D01*
X117830381Y-99250476D01*
X116830381Y-98917143D02*
X116830381Y-98298095D01*
X117211333Y-98631429D01*
X117211333Y-98488571D01*
X117258952Y-98393333D01*
X117306571Y-98345714D01*
X117401810Y-98298095D01*
X117639905Y-98298095D01*
X117735143Y-98345714D01*
X117782762Y-98393333D01*
X117830381Y-98488571D01*
X117830381Y-98774286D01*
X117782762Y-98869524D01*
X117735143Y-98917143D01*
X127830381Y-100774286D02*
X126830381Y-100774286D01*
X126830381Y-100536191D01*
X126878000Y-100393333D01*
X126973238Y-100298095D01*
X127068476Y-100250476D01*
X127258952Y-100202857D01*
X127401810Y-100202857D01*
X127592286Y-100250476D01*
X127687524Y-100298095D01*
X127782762Y-100393333D01*
X127830381Y-100536191D01*
X127830381Y-100774286D01*
X126925619Y-99821905D02*
X126878000Y-99774286D01*
X126830381Y-99679048D01*
X126830381Y-99440952D01*
X126878000Y-99345714D01*
X126925619Y-99298095D01*
X127020857Y-99250476D01*
X127116095Y-99250476D01*
X127258952Y-99298095D01*
X127830381Y-99869524D01*
X127830381Y-99250476D01*
X127163714Y-98393333D02*
X127830381Y-98393333D01*
X126782762Y-98631429D02*
X127497048Y-98869524D01*
X127497048Y-98250476D01*
X107830381Y-110774286D02*
X106830381Y-110774286D01*
X106830381Y-110536191D01*
X106878000Y-110393333D01*
X106973238Y-110298095D01*
X107068476Y-110250476D01*
X107258952Y-110202857D01*
X107401810Y-110202857D01*
X107592286Y-110250476D01*
X107687524Y-110298095D01*
X107782762Y-110393333D01*
X107830381Y-110536191D01*
X107830381Y-110774286D01*
X106925619Y-109821905D02*
X106878000Y-109774286D01*
X106830381Y-109679048D01*
X106830381Y-109440952D01*
X106878000Y-109345714D01*
X106925619Y-109298095D01*
X107020857Y-109250476D01*
X107116095Y-109250476D01*
X107258952Y-109298095D01*
X107830381Y-109869524D01*
X107830381Y-109250476D01*
X106830381Y-108345714D02*
X106830381Y-108821905D01*
X107306571Y-108869524D01*
X107258952Y-108821905D01*
X107211333Y-108726667D01*
X107211333Y-108488571D01*
X107258952Y-108393333D01*
X107306571Y-108345714D01*
X107401810Y-108298095D01*
X107639905Y-108298095D01*
X107735143Y-108345714D01*
X107782762Y-108393333D01*
X107830381Y-108488571D01*
X107830381Y-108726667D01*
X107782762Y-108821905D01*
X107735143Y-108869524D01*
X117830381Y-110774286D02*
X116830381Y-110774286D01*
X116830381Y-110536191D01*
X116878000Y-110393333D01*
X116973238Y-110298095D01*
X117068476Y-110250476D01*
X117258952Y-110202857D01*
X117401810Y-110202857D01*
X117592286Y-110250476D01*
X117687524Y-110298095D01*
X117782762Y-110393333D01*
X117830381Y-110536191D01*
X117830381Y-110774286D01*
X116925619Y-109821905D02*
X116878000Y-109774286D01*
X116830381Y-109679048D01*
X116830381Y-109440952D01*
X116878000Y-109345714D01*
X116925619Y-109298095D01*
X117020857Y-109250476D01*
X117116095Y-109250476D01*
X117258952Y-109298095D01*
X117830381Y-109869524D01*
X117830381Y-109250476D01*
X116830381Y-108393333D02*
X116830381Y-108583810D01*
X116878000Y-108679048D01*
X116925619Y-108726667D01*
X117068476Y-108821905D01*
X117258952Y-108869524D01*
X117639905Y-108869524D01*
X117735143Y-108821905D01*
X117782762Y-108774286D01*
X117830381Y-108679048D01*
X117830381Y-108488571D01*
X117782762Y-108393333D01*
X117735143Y-108345714D01*
X117639905Y-108298095D01*
X117401810Y-108298095D01*
X117306571Y-108345714D01*
X117258952Y-108393333D01*
X117211333Y-108488571D01*
X117211333Y-108679048D01*
X117258952Y-108774286D01*
X117306571Y-108821905D01*
X117401810Y-108869524D01*
X127830381Y-110774286D02*
X126830381Y-110774286D01*
X126830381Y-110536191D01*
X126878000Y-110393333D01*
X126973238Y-110298095D01*
X127068476Y-110250476D01*
X127258952Y-110202857D01*
X127401810Y-110202857D01*
X127592286Y-110250476D01*
X127687524Y-110298095D01*
X127782762Y-110393333D01*
X127830381Y-110536191D01*
X127830381Y-110774286D01*
X126925619Y-109821905D02*
X126878000Y-109774286D01*
X126830381Y-109679048D01*
X126830381Y-109440952D01*
X126878000Y-109345714D01*
X126925619Y-109298095D01*
X127020857Y-109250476D01*
X127116095Y-109250476D01*
X127258952Y-109298095D01*
X127830381Y-109869524D01*
X127830381Y-109250476D01*
X126830381Y-108917143D02*
X126830381Y-108250476D01*
X127830381Y-108679048D01*
X107830381Y-120774286D02*
X106830381Y-120774286D01*
X106830381Y-120536191D01*
X106878000Y-120393333D01*
X106973238Y-120298095D01*
X107068476Y-120250476D01*
X107258952Y-120202857D01*
X107401810Y-120202857D01*
X107592286Y-120250476D01*
X107687524Y-120298095D01*
X107782762Y-120393333D01*
X107830381Y-120536191D01*
X107830381Y-120774286D01*
X106925619Y-119821905D02*
X106878000Y-119774286D01*
X106830381Y-119679048D01*
X106830381Y-119440952D01*
X106878000Y-119345714D01*
X106925619Y-119298095D01*
X107020857Y-119250476D01*
X107116095Y-119250476D01*
X107258952Y-119298095D01*
X107830381Y-119869524D01*
X107830381Y-119250476D01*
X107258952Y-118679048D02*
X107211333Y-118774286D01*
X107163714Y-118821905D01*
X107068476Y-118869524D01*
X107020857Y-118869524D01*
X106925619Y-118821905D01*
X106878000Y-118774286D01*
X106830381Y-118679048D01*
X106830381Y-118488571D01*
X106878000Y-118393333D01*
X106925619Y-118345714D01*
X107020857Y-118298095D01*
X107068476Y-118298095D01*
X107163714Y-118345714D01*
X107211333Y-118393333D01*
X107258952Y-118488571D01*
X107258952Y-118679048D01*
X107306571Y-118774286D01*
X107354190Y-118821905D01*
X107449429Y-118869524D01*
X107639905Y-118869524D01*
X107735143Y-118821905D01*
X107782762Y-118774286D01*
X107830381Y-118679048D01*
X107830381Y-118488571D01*
X107782762Y-118393333D01*
X107735143Y-118345714D01*
X107639905Y-118298095D01*
X107449429Y-118298095D01*
X107354190Y-118345714D01*
X107306571Y-118393333D01*
X107258952Y-118488571D01*
X117830381Y-120774286D02*
X116830381Y-120774286D01*
X116830381Y-120536191D01*
X116878000Y-120393333D01*
X116973238Y-120298095D01*
X117068476Y-120250476D01*
X117258952Y-120202857D01*
X117401810Y-120202857D01*
X117592286Y-120250476D01*
X117687524Y-120298095D01*
X117782762Y-120393333D01*
X117830381Y-120536191D01*
X117830381Y-120774286D01*
X116925619Y-119821905D02*
X116878000Y-119774286D01*
X116830381Y-119679048D01*
X116830381Y-119440952D01*
X116878000Y-119345714D01*
X116925619Y-119298095D01*
X117020857Y-119250476D01*
X117116095Y-119250476D01*
X117258952Y-119298095D01*
X117830381Y-119869524D01*
X117830381Y-119250476D01*
X117830381Y-118774286D02*
X117830381Y-118583810D01*
X117782762Y-118488571D01*
X117735143Y-118440952D01*
X117592286Y-118345714D01*
X117401810Y-118298095D01*
X117020857Y-118298095D01*
X116925619Y-118345714D01*
X116878000Y-118393333D01*
X116830381Y-118488571D01*
X116830381Y-118679048D01*
X116878000Y-118774286D01*
X116925619Y-118821905D01*
X117020857Y-118869524D01*
X117258952Y-118869524D01*
X117354190Y-118821905D01*
X117401810Y-118774286D01*
X117449429Y-118679048D01*
X117449429Y-118488571D01*
X117401810Y-118393333D01*
X117354190Y-118345714D01*
X117258952Y-118298095D01*
X127830381Y-120774286D02*
X126830381Y-120774286D01*
X126830381Y-120536191D01*
X126878000Y-120393333D01*
X126973238Y-120298095D01*
X127068476Y-120250476D01*
X127258952Y-120202857D01*
X127401810Y-120202857D01*
X127592286Y-120250476D01*
X127687524Y-120298095D01*
X127782762Y-120393333D01*
X127830381Y-120536191D01*
X127830381Y-120774286D01*
X126830381Y-119869524D02*
X126830381Y-119250476D01*
X127211333Y-119583810D01*
X127211333Y-119440952D01*
X127258952Y-119345714D01*
X127306571Y-119298095D01*
X127401810Y-119250476D01*
X127639905Y-119250476D01*
X127735143Y-119298095D01*
X127782762Y-119345714D01*
X127830381Y-119440952D01*
X127830381Y-119726667D01*
X127782762Y-119821905D01*
X127735143Y-119869524D01*
X126830381Y-118631429D02*
X126830381Y-118536190D01*
X126878000Y-118440952D01*
X126925619Y-118393333D01*
X127020857Y-118345714D01*
X127211333Y-118298095D01*
X127449429Y-118298095D01*
X127639905Y-118345714D01*
X127735143Y-118393333D01*
X127782762Y-118440952D01*
X127830381Y-118536190D01*
X127830381Y-118631429D01*
X127782762Y-118726667D01*
X127735143Y-118774286D01*
X127639905Y-118821905D01*
X127449429Y-118869524D01*
X127211333Y-118869524D01*
X127020857Y-118821905D01*
X126925619Y-118774286D01*
X126878000Y-118726667D01*
X126830381Y-118631429D01*
X107830381Y-130774286D02*
X106830381Y-130774286D01*
X106830381Y-130536191D01*
X106878000Y-130393333D01*
X106973238Y-130298095D01*
X107068476Y-130250476D01*
X107258952Y-130202857D01*
X107401810Y-130202857D01*
X107592286Y-130250476D01*
X107687524Y-130298095D01*
X107782762Y-130393333D01*
X107830381Y-130536191D01*
X107830381Y-130774286D01*
X106830381Y-129869524D02*
X106830381Y-129250476D01*
X107211333Y-129583810D01*
X107211333Y-129440952D01*
X107258952Y-129345714D01*
X107306571Y-129298095D01*
X107401810Y-129250476D01*
X107639905Y-129250476D01*
X107735143Y-129298095D01*
X107782762Y-129345714D01*
X107830381Y-129440952D01*
X107830381Y-129726667D01*
X107782762Y-129821905D01*
X107735143Y-129869524D01*
X107830381Y-128298095D02*
X107830381Y-128869524D01*
X107830381Y-128583810D02*
X106830381Y-128583810D01*
X106973238Y-128679048D01*
X107068476Y-128774286D01*
X107116095Y-128869524D01*
X117830381Y-130774286D02*
X116830381Y-130774286D01*
X116830381Y-130536191D01*
X116878000Y-130393333D01*
X116973238Y-130298095D01*
X117068476Y-130250476D01*
X117258952Y-130202857D01*
X117401810Y-130202857D01*
X117592286Y-130250476D01*
X117687524Y-130298095D01*
X117782762Y-130393333D01*
X117830381Y-130536191D01*
X117830381Y-130774286D01*
X116830381Y-129869524D02*
X116830381Y-129250476D01*
X117211333Y-129583810D01*
X117211333Y-129440952D01*
X117258952Y-129345714D01*
X117306571Y-129298095D01*
X117401810Y-129250476D01*
X117639905Y-129250476D01*
X117735143Y-129298095D01*
X117782762Y-129345714D01*
X117830381Y-129440952D01*
X117830381Y-129726667D01*
X117782762Y-129821905D01*
X117735143Y-129869524D01*
X116925619Y-128869524D02*
X116878000Y-128821905D01*
X116830381Y-128726667D01*
X116830381Y-128488571D01*
X116878000Y-128393333D01*
X116925619Y-128345714D01*
X117020857Y-128298095D01*
X117116095Y-128298095D01*
X117258952Y-128345714D01*
X117830381Y-128917143D01*
X117830381Y-128298095D01*
X127830381Y-130774286D02*
X126830381Y-130774286D01*
X126830381Y-130536191D01*
X126878000Y-130393333D01*
X126973238Y-130298095D01*
X127068476Y-130250476D01*
X127258952Y-130202857D01*
X127401810Y-130202857D01*
X127592286Y-130250476D01*
X127687524Y-130298095D01*
X127782762Y-130393333D01*
X127830381Y-130536191D01*
X127830381Y-130774286D01*
X126830381Y-129869524D02*
X126830381Y-129250476D01*
X127211333Y-129583810D01*
X127211333Y-129440952D01*
X127258952Y-129345714D01*
X127306571Y-129298095D01*
X127401810Y-129250476D01*
X127639905Y-129250476D01*
X127735143Y-129298095D01*
X127782762Y-129345714D01*
X127830381Y-129440952D01*
X127830381Y-129726667D01*
X127782762Y-129821905D01*
X127735143Y-129869524D01*
X126830381Y-128917143D02*
X126830381Y-128298095D01*
X127211333Y-128631429D01*
X127211333Y-128488571D01*
X127258952Y-128393333D01*
X127306571Y-128345714D01*
X127401810Y-128298095D01*
X127639905Y-128298095D01*
X127735143Y-128345714D01*
X127782762Y-128393333D01*
X127830381Y-128488571D01*
X127830381Y-128774286D01*
X127782762Y-128869524D01*
X127735143Y-128917143D01*
X107830381Y-140774286D02*
X106830381Y-140774286D01*
X106830381Y-140536191D01*
X106878000Y-140393333D01*
X106973238Y-140298095D01*
X107068476Y-140250476D01*
X107258952Y-140202857D01*
X107401810Y-140202857D01*
X107592286Y-140250476D01*
X107687524Y-140298095D01*
X107782762Y-140393333D01*
X107830381Y-140536191D01*
X107830381Y-140774286D01*
X106830381Y-139869524D02*
X106830381Y-139250476D01*
X107211333Y-139583810D01*
X107211333Y-139440952D01*
X107258952Y-139345714D01*
X107306571Y-139298095D01*
X107401810Y-139250476D01*
X107639905Y-139250476D01*
X107735143Y-139298095D01*
X107782762Y-139345714D01*
X107830381Y-139440952D01*
X107830381Y-139726667D01*
X107782762Y-139821905D01*
X107735143Y-139869524D01*
X107163714Y-138393333D02*
X107830381Y-138393333D01*
X106782762Y-138631429D02*
X107497048Y-138869524D01*
X107497048Y-138250476D01*
X117830381Y-140774286D02*
X116830381Y-140774286D01*
X116830381Y-140536191D01*
X116878000Y-140393333D01*
X116973238Y-140298095D01*
X117068476Y-140250476D01*
X117258952Y-140202857D01*
X117401810Y-140202857D01*
X117592286Y-140250476D01*
X117687524Y-140298095D01*
X117782762Y-140393333D01*
X117830381Y-140536191D01*
X117830381Y-140774286D01*
X116830381Y-139869524D02*
X116830381Y-139250476D01*
X117211333Y-139583810D01*
X117211333Y-139440952D01*
X117258952Y-139345714D01*
X117306571Y-139298095D01*
X117401810Y-139250476D01*
X117639905Y-139250476D01*
X117735143Y-139298095D01*
X117782762Y-139345714D01*
X117830381Y-139440952D01*
X117830381Y-139726667D01*
X117782762Y-139821905D01*
X117735143Y-139869524D01*
X116830381Y-138345714D02*
X116830381Y-138821905D01*
X117306571Y-138869524D01*
X117258952Y-138821905D01*
X117211333Y-138726667D01*
X117211333Y-138488571D01*
X117258952Y-138393333D01*
X117306571Y-138345714D01*
X117401810Y-138298095D01*
X117639905Y-138298095D01*
X117735143Y-138345714D01*
X117782762Y-138393333D01*
X117830381Y-138488571D01*
X117830381Y-138726667D01*
X117782762Y-138821905D01*
X117735143Y-138869524D01*
X127830381Y-140774286D02*
X126830381Y-140774286D01*
X126830381Y-140536191D01*
X126878000Y-140393333D01*
X126973238Y-140298095D01*
X127068476Y-140250476D01*
X127258952Y-140202857D01*
X127401810Y-140202857D01*
X127592286Y-140250476D01*
X127687524Y-140298095D01*
X127782762Y-140393333D01*
X127830381Y-140536191D01*
X127830381Y-140774286D01*
X126830381Y-139869524D02*
X126830381Y-139250476D01*
X127211333Y-139583810D01*
X127211333Y-139440952D01*
X127258952Y-139345714D01*
X127306571Y-139298095D01*
X127401810Y-139250476D01*
X127639905Y-139250476D01*
X127735143Y-139298095D01*
X127782762Y-139345714D01*
X127830381Y-139440952D01*
X127830381Y-139726667D01*
X127782762Y-139821905D01*
X127735143Y-139869524D01*
X126830381Y-138393333D02*
X126830381Y-138583810D01*
X126878000Y-138679048D01*
X126925619Y-138726667D01*
X127068476Y-138821905D01*
X127258952Y-138869524D01*
X127639905Y-138869524D01*
X127735143Y-138821905D01*
X127782762Y-138774286D01*
X127830381Y-138679048D01*
X127830381Y-138488571D01*
X127782762Y-138393333D01*
X127735143Y-138345714D01*
X127639905Y-138298095D01*
X127401810Y-138298095D01*
X127306571Y-138345714D01*
X127258952Y-138393333D01*
X127211333Y-138488571D01*
X127211333Y-138679048D01*
X127258952Y-138774286D01*
X127306571Y-138821905D01*
X127401810Y-138869524D01*
X107830381Y-150774286D02*
X106830381Y-150774286D01*
X106830381Y-150536191D01*
X106878000Y-150393333D01*
X106973238Y-150298095D01*
X107068476Y-150250476D01*
X107258952Y-150202857D01*
X107401810Y-150202857D01*
X107592286Y-150250476D01*
X107687524Y-150298095D01*
X107782762Y-150393333D01*
X107830381Y-150536191D01*
X107830381Y-150774286D01*
X106830381Y-149869524D02*
X106830381Y-149250476D01*
X107211333Y-149583810D01*
X107211333Y-149440952D01*
X107258952Y-149345714D01*
X107306571Y-149298095D01*
X107401810Y-149250476D01*
X107639905Y-149250476D01*
X107735143Y-149298095D01*
X107782762Y-149345714D01*
X107830381Y-149440952D01*
X107830381Y-149726667D01*
X107782762Y-149821905D01*
X107735143Y-149869524D01*
X106830381Y-148917143D02*
X106830381Y-148250476D01*
X107830381Y-148679048D01*
X117830381Y-150774286D02*
X116830381Y-150774286D01*
X116830381Y-150536191D01*
X116878000Y-150393333D01*
X116973238Y-150298095D01*
X117068476Y-150250476D01*
X117258952Y-150202857D01*
X117401810Y-150202857D01*
X117592286Y-150250476D01*
X117687524Y-150298095D01*
X117782762Y-150393333D01*
X117830381Y-150536191D01*
X117830381Y-150774286D01*
X116830381Y-149869524D02*
X116830381Y-149250476D01*
X117211333Y-149583810D01*
X117211333Y-149440952D01*
X117258952Y-149345714D01*
X117306571Y-149298095D01*
X117401810Y-149250476D01*
X117639905Y-149250476D01*
X117735143Y-149298095D01*
X117782762Y-149345714D01*
X117830381Y-149440952D01*
X117830381Y-149726667D01*
X117782762Y-149821905D01*
X117735143Y-149869524D01*
X117258952Y-148679048D02*
X117211333Y-148774286D01*
X117163714Y-148821905D01*
X117068476Y-148869524D01*
X117020857Y-148869524D01*
X116925619Y-148821905D01*
X116878000Y-148774286D01*
X116830381Y-148679048D01*
X116830381Y-148488571D01*
X116878000Y-148393333D01*
X116925619Y-148345714D01*
X117020857Y-148298095D01*
X117068476Y-148298095D01*
X117163714Y-148345714D01*
X117211333Y-148393333D01*
X117258952Y-148488571D01*
X117258952Y-148679048D01*
X117306571Y-148774286D01*
X117354190Y-148821905D01*
X117449429Y-148869524D01*
X117639905Y-148869524D01*
X117735143Y-148821905D01*
X117782762Y-148774286D01*
X117830381Y-148679048D01*
X117830381Y-148488571D01*
X117782762Y-148393333D01*
X117735143Y-148345714D01*
X117639905Y-148298095D01*
X117449429Y-148298095D01*
X117354190Y-148345714D01*
X117306571Y-148393333D01*
X117258952Y-148488571D01*
X127830381Y-150774286D02*
X126830381Y-150774286D01*
X126830381Y-150536191D01*
X126878000Y-150393333D01*
X126973238Y-150298095D01*
X127068476Y-150250476D01*
X127258952Y-150202857D01*
X127401810Y-150202857D01*
X127592286Y-150250476D01*
X127687524Y-150298095D01*
X127782762Y-150393333D01*
X127830381Y-150536191D01*
X127830381Y-150774286D01*
X126830381Y-149869524D02*
X126830381Y-149250476D01*
X127211333Y-149583810D01*
X127211333Y-149440952D01*
X127258952Y-149345714D01*
X127306571Y-149298095D01*
X127401810Y-149250476D01*
X127639905Y-149250476D01*
X127735143Y-149298095D01*
X127782762Y-149345714D01*
X127830381Y-149440952D01*
X127830381Y-149726667D01*
X127782762Y-149821905D01*
X127735143Y-149869524D01*
X127830381Y-148774286D02*
X127830381Y-148583810D01*
X127782762Y-148488571D01*
X127735143Y-148440952D01*
X127592286Y-148345714D01*
X127401810Y-148298095D01*
X127020857Y-148298095D01*
X126925619Y-148345714D01*
X126878000Y-148393333D01*
X126830381Y-148488571D01*
X126830381Y-148679048D01*
X126878000Y-148774286D01*
X126925619Y-148821905D01*
X127020857Y-148869524D01*
X127258952Y-148869524D01*
X127354190Y-148821905D01*
X127401810Y-148774286D01*
X127449429Y-148679048D01*
X127449429Y-148488571D01*
X127401810Y-148393333D01*
X127354190Y-148345714D01*
X127258952Y-148298095D01*
X107830381Y-160774286D02*
X106830381Y-160774286D01*
X106830381Y-160536191D01*
X106878000Y-160393333D01*
X106973238Y-160298095D01*
X107068476Y-160250476D01*
X107258952Y-160202857D01*
X107401810Y-160202857D01*
X107592286Y-160250476D01*
X107687524Y-160298095D01*
X107782762Y-160393333D01*
X107830381Y-160536191D01*
X107830381Y-160774286D01*
X107163714Y-159345714D02*
X107830381Y-159345714D01*
X106782762Y-159583810D02*
X107497048Y-159821905D01*
X107497048Y-159202857D01*
X106830381Y-158631429D02*
X106830381Y-158536190D01*
X106878000Y-158440952D01*
X106925619Y-158393333D01*
X107020857Y-158345714D01*
X107211333Y-158298095D01*
X107449429Y-158298095D01*
X107639905Y-158345714D01*
X107735143Y-158393333D01*
X107782762Y-158440952D01*
X107830381Y-158536190D01*
X107830381Y-158631429D01*
X107782762Y-158726667D01*
X107735143Y-158774286D01*
X107639905Y-158821905D01*
X107449429Y-158869524D01*
X107211333Y-158869524D01*
X107020857Y-158821905D01*
X106925619Y-158774286D01*
X106878000Y-158726667D01*
X106830381Y-158631429D01*
X117830381Y-160774286D02*
X116830381Y-160774286D01*
X116830381Y-160536191D01*
X116878000Y-160393333D01*
X116973238Y-160298095D01*
X117068476Y-160250476D01*
X117258952Y-160202857D01*
X117401810Y-160202857D01*
X117592286Y-160250476D01*
X117687524Y-160298095D01*
X117782762Y-160393333D01*
X117830381Y-160536191D01*
X117830381Y-160774286D01*
X117163714Y-159345714D02*
X117830381Y-159345714D01*
X116782762Y-159583810D02*
X117497048Y-159821905D01*
X117497048Y-159202857D01*
X117830381Y-158298095D02*
X117830381Y-158869524D01*
X117830381Y-158583810D02*
X116830381Y-158583810D01*
X116973238Y-158679048D01*
X117068476Y-158774286D01*
X117116095Y-158869524D01*
X127830381Y-160774286D02*
X126830381Y-160774286D01*
X126830381Y-160536191D01*
X126878000Y-160393333D01*
X126973238Y-160298095D01*
X127068476Y-160250476D01*
X127258952Y-160202857D01*
X127401810Y-160202857D01*
X127592286Y-160250476D01*
X127687524Y-160298095D01*
X127782762Y-160393333D01*
X127830381Y-160536191D01*
X127830381Y-160774286D01*
X127163714Y-159345714D02*
X127830381Y-159345714D01*
X126782762Y-159583810D02*
X127497048Y-159821905D01*
X127497048Y-159202857D01*
X126925619Y-158869524D02*
X126878000Y-158821905D01*
X126830381Y-158726667D01*
X126830381Y-158488571D01*
X126878000Y-158393333D01*
X126925619Y-158345714D01*
X127020857Y-158298095D01*
X127116095Y-158298095D01*
X127258952Y-158345714D01*
X127830381Y-158917143D01*
X127830381Y-158298095D01*
X107830381Y-170774286D02*
X106830381Y-170774286D01*
X106830381Y-170536191D01*
X106878000Y-170393333D01*
X106973238Y-170298095D01*
X107068476Y-170250476D01*
X107258952Y-170202857D01*
X107401810Y-170202857D01*
X107592286Y-170250476D01*
X107687524Y-170298095D01*
X107782762Y-170393333D01*
X107830381Y-170536191D01*
X107830381Y-170774286D01*
X107163714Y-169345714D02*
X107830381Y-169345714D01*
X106782762Y-169583810D02*
X107497048Y-169821905D01*
X107497048Y-169202857D01*
X106830381Y-168917143D02*
X106830381Y-168298095D01*
X107211333Y-168631429D01*
X107211333Y-168488571D01*
X107258952Y-168393333D01*
X107306571Y-168345714D01*
X107401810Y-168298095D01*
X107639905Y-168298095D01*
X107735143Y-168345714D01*
X107782762Y-168393333D01*
X107830381Y-168488571D01*
X107830381Y-168774286D01*
X107782762Y-168869524D01*
X107735143Y-168917143D01*
X117830381Y-170774286D02*
X116830381Y-170774286D01*
X116830381Y-170536191D01*
X116878000Y-170393333D01*
X116973238Y-170298095D01*
X117068476Y-170250476D01*
X117258952Y-170202857D01*
X117401810Y-170202857D01*
X117592286Y-170250476D01*
X117687524Y-170298095D01*
X117782762Y-170393333D01*
X117830381Y-170536191D01*
X117830381Y-170774286D01*
X117163714Y-169345714D02*
X117830381Y-169345714D01*
X116782762Y-169583810D02*
X117497048Y-169821905D01*
X117497048Y-169202857D01*
X117163714Y-168393333D02*
X117830381Y-168393333D01*
X116782762Y-168631429D02*
X117497048Y-168869524D01*
X117497048Y-168250476D01*
X127830381Y-170774286D02*
X126830381Y-170774286D01*
X126830381Y-170536191D01*
X126878000Y-170393333D01*
X126973238Y-170298095D01*
X127068476Y-170250476D01*
X127258952Y-170202857D01*
X127401810Y-170202857D01*
X127592286Y-170250476D01*
X127687524Y-170298095D01*
X127782762Y-170393333D01*
X127830381Y-170536191D01*
X127830381Y-170774286D01*
X127163714Y-169345714D02*
X127830381Y-169345714D01*
X126782762Y-169583810D02*
X127497048Y-169821905D01*
X127497048Y-169202857D01*
X126830381Y-168345714D02*
X126830381Y-168821905D01*
X127306571Y-168869524D01*
X127258952Y-168821905D01*
X127211333Y-168726667D01*
X127211333Y-168488571D01*
X127258952Y-168393333D01*
X127306571Y-168345714D01*
X127401810Y-168298095D01*
X127639905Y-168298095D01*
X127735143Y-168345714D01*
X127782762Y-168393333D01*
X127830381Y-168488571D01*
X127830381Y-168726667D01*
X127782762Y-168821905D01*
X127735143Y-168869524D01*
X107830381Y-180774286D02*
X106830381Y-180774286D01*
X106830381Y-180536191D01*
X106878000Y-180393333D01*
X106973238Y-180298095D01*
X107068476Y-180250476D01*
X107258952Y-180202857D01*
X107401810Y-180202857D01*
X107592286Y-180250476D01*
X107687524Y-180298095D01*
X107782762Y-180393333D01*
X107830381Y-180536191D01*
X107830381Y-180774286D01*
X107163714Y-179345714D02*
X107830381Y-179345714D01*
X106782762Y-179583810D02*
X107497048Y-179821905D01*
X107497048Y-179202857D01*
X106830381Y-178393333D02*
X106830381Y-178583810D01*
X106878000Y-178679048D01*
X106925619Y-178726667D01*
X107068476Y-178821905D01*
X107258952Y-178869524D01*
X107639905Y-178869524D01*
X107735143Y-178821905D01*
X107782762Y-178774286D01*
X107830381Y-178679048D01*
X107830381Y-178488571D01*
X107782762Y-178393333D01*
X107735143Y-178345714D01*
X107639905Y-178298095D01*
X107401810Y-178298095D01*
X107306571Y-178345714D01*
X107258952Y-178393333D01*
X107211333Y-178488571D01*
X107211333Y-178679048D01*
X107258952Y-178774286D01*
X107306571Y-178821905D01*
X107401810Y-178869524D01*
X117830381Y-180774286D02*
X116830381Y-180774286D01*
X116830381Y-180536191D01*
X116878000Y-180393333D01*
X116973238Y-180298095D01*
X117068476Y-180250476D01*
X117258952Y-180202857D01*
X117401810Y-180202857D01*
X117592286Y-180250476D01*
X117687524Y-180298095D01*
X117782762Y-180393333D01*
X117830381Y-180536191D01*
X117830381Y-180774286D01*
X117163714Y-179345714D02*
X117830381Y-179345714D01*
X116782762Y-179583810D02*
X117497048Y-179821905D01*
X117497048Y-179202857D01*
X116830381Y-178917143D02*
X116830381Y-178250476D01*
X117830381Y-178679048D01*
X127830381Y-180774286D02*
X126830381Y-180774286D01*
X126830381Y-180536191D01*
X126878000Y-180393333D01*
X126973238Y-180298095D01*
X127068476Y-180250476D01*
X127258952Y-180202857D01*
X127401810Y-180202857D01*
X127592286Y-180250476D01*
X127687524Y-180298095D01*
X127782762Y-180393333D01*
X127830381Y-180536191D01*
X127830381Y-180774286D01*
X127163714Y-179345714D02*
X127830381Y-179345714D01*
X126782762Y-179583810D02*
X127497048Y-179821905D01*
X127497048Y-179202857D01*
X127258952Y-178679048D02*
X127211333Y-178774286D01*
X127163714Y-178821905D01*
X127068476Y-178869524D01*
X127020857Y-178869524D01*
X126925619Y-178821905D01*
X126878000Y-178774286D01*
X126830381Y-178679048D01*
X126830381Y-178488571D01*
X126878000Y-178393333D01*
X126925619Y-178345714D01*
X127020857Y-178298095D01*
X127068476Y-178298095D01*
X127163714Y-178345714D01*
X127211333Y-178393333D01*
X127258952Y-178488571D01*
X127258952Y-178679048D01*
X127306571Y-178774286D01*
X127354190Y-178821905D01*
X127449429Y-178869524D01*
X127639905Y-178869524D01*
X127735143Y-178821905D01*
X127782762Y-178774286D01*
X127830381Y-178679048D01*
X127830381Y-178488571D01*
X127782762Y-178393333D01*
X127735143Y-178345714D01*
X127639905Y-178298095D01*
X127449429Y-178298095D01*
X127354190Y-178345714D01*
X127306571Y-178393333D01*
X127258952Y-178488571D01*
X107830381Y-190774286D02*
X106830381Y-190774286D01*
X106830381Y-190536191D01*
X106878000Y-190393333D01*
X106973238Y-190298095D01*
X107068476Y-190250476D01*
X107258952Y-190202857D01*
X107401810Y-190202857D01*
X107592286Y-190250476D01*
X107687524Y-190298095D01*
X107782762Y-190393333D01*
X107830381Y-190536191D01*
X107830381Y-190774286D01*
X107163714Y-189345714D02*
X107830381Y-189345714D01*
X106782762Y-189583810D02*
X107497048Y-189821905D01*
X107497048Y-189202857D01*
X107830381Y-188774286D02*
X107830381Y-188583810D01*
X107782762Y-188488571D01*
X107735143Y-188440952D01*
X107592286Y-188345714D01*
X107401810Y-188298095D01*
X107020857Y-188298095D01*
X106925619Y-188345714D01*
X106878000Y-188393333D01*
X106830381Y-188488571D01*
X106830381Y-188679048D01*
X106878000Y-188774286D01*
X106925619Y-188821905D01*
X107020857Y-188869524D01*
X107258952Y-188869524D01*
X107354190Y-188821905D01*
X107401810Y-188774286D01*
X107449429Y-188679048D01*
X107449429Y-188488571D01*
X107401810Y-188393333D01*
X107354190Y-188345714D01*
X107258952Y-188298095D01*
X117830381Y-190774286D02*
X116830381Y-190774286D01*
X116830381Y-190536191D01*
X116878000Y-190393333D01*
X116973238Y-190298095D01*
X117068476Y-190250476D01*
X117258952Y-190202857D01*
X117401810Y-190202857D01*
X117592286Y-190250476D01*
X117687524Y-190298095D01*
X117782762Y-190393333D01*
X117830381Y-190536191D01*
X117830381Y-190774286D01*
X116830381Y-189298095D02*
X116830381Y-189774286D01*
X117306571Y-189821905D01*
X117258952Y-189774286D01*
X117211333Y-189679048D01*
X117211333Y-189440952D01*
X117258952Y-189345714D01*
X117306571Y-189298095D01*
X117401810Y-189250476D01*
X117639905Y-189250476D01*
X117735143Y-189298095D01*
X117782762Y-189345714D01*
X117830381Y-189440952D01*
X117830381Y-189679048D01*
X117782762Y-189774286D01*
X117735143Y-189821905D01*
X116830381Y-188631429D02*
X116830381Y-188536190D01*
X116878000Y-188440952D01*
X116925619Y-188393333D01*
X117020857Y-188345714D01*
X117211333Y-188298095D01*
X117449429Y-188298095D01*
X117639905Y-188345714D01*
X117735143Y-188393333D01*
X117782762Y-188440952D01*
X117830381Y-188536190D01*
X117830381Y-188631429D01*
X117782762Y-188726667D01*
X117735143Y-188774286D01*
X117639905Y-188821905D01*
X117449429Y-188869524D01*
X117211333Y-188869524D01*
X117020857Y-188821905D01*
X116925619Y-188774286D01*
X116878000Y-188726667D01*
X116830381Y-188631429D01*
X127830381Y-190774286D02*
X126830381Y-190774286D01*
X126830381Y-190536191D01*
X126878000Y-190393333D01*
X126973238Y-190298095D01*
X127068476Y-190250476D01*
X127258952Y-190202857D01*
X127401810Y-190202857D01*
X127592286Y-190250476D01*
X127687524Y-190298095D01*
X127782762Y-190393333D01*
X127830381Y-190536191D01*
X127830381Y-190774286D01*
X126830381Y-189298095D02*
X126830381Y-189774286D01*
X127306571Y-189821905D01*
X127258952Y-189774286D01*
X127211333Y-189679048D01*
X127211333Y-189440952D01*
X127258952Y-189345714D01*
X127306571Y-189298095D01*
X127401810Y-189250476D01*
X127639905Y-189250476D01*
X127735143Y-189298095D01*
X127782762Y-189345714D01*
X127830381Y-189440952D01*
X127830381Y-189679048D01*
X127782762Y-189774286D01*
X127735143Y-189821905D01*
X127830381Y-188298095D02*
X127830381Y-188869524D01*
X127830381Y-188583810D02*
X126830381Y-188583810D01*
X126973238Y-188679048D01*
X127068476Y-188774286D01*
X127116095Y-188869524D01*
X107830381Y-200774286D02*
X106830381Y-200774286D01*
X106830381Y-200536191D01*
X106878000Y-200393333D01*
X106973238Y-200298095D01*
X107068476Y-200250476D01*
X107258952Y-200202857D01*
X107401810Y-200202857D01*
X107592286Y-200250476D01*
X107687524Y-200298095D01*
X107782762Y-200393333D01*
X107830381Y-200536191D01*
X107830381Y-200774286D01*
X106830381Y-199298095D02*
X106830381Y-199774286D01*
X107306571Y-199821905D01*
X107258952Y-199774286D01*
X107211333Y-199679048D01*
X107211333Y-199440952D01*
X107258952Y-199345714D01*
X107306571Y-199298095D01*
X107401810Y-199250476D01*
X107639905Y-199250476D01*
X107735143Y-199298095D01*
X107782762Y-199345714D01*
X107830381Y-199440952D01*
X107830381Y-199679048D01*
X107782762Y-199774286D01*
X107735143Y-199821905D01*
X106925619Y-198869524D02*
X106878000Y-198821905D01*
X106830381Y-198726667D01*
X106830381Y-198488571D01*
X106878000Y-198393333D01*
X106925619Y-198345714D01*
X107020857Y-198298095D01*
X107116095Y-198298095D01*
X107258952Y-198345714D01*
X107830381Y-198917143D01*
X107830381Y-198298095D01*
X117830381Y-200774286D02*
X116830381Y-200774286D01*
X116830381Y-200536191D01*
X116878000Y-200393333D01*
X116973238Y-200298095D01*
X117068476Y-200250476D01*
X117258952Y-200202857D01*
X117401810Y-200202857D01*
X117592286Y-200250476D01*
X117687524Y-200298095D01*
X117782762Y-200393333D01*
X117830381Y-200536191D01*
X117830381Y-200774286D01*
X116830381Y-199298095D02*
X116830381Y-199774286D01*
X117306571Y-199821905D01*
X117258952Y-199774286D01*
X117211333Y-199679048D01*
X117211333Y-199440952D01*
X117258952Y-199345714D01*
X117306571Y-199298095D01*
X117401810Y-199250476D01*
X117639905Y-199250476D01*
X117735143Y-199298095D01*
X117782762Y-199345714D01*
X117830381Y-199440952D01*
X117830381Y-199679048D01*
X117782762Y-199774286D01*
X117735143Y-199821905D01*
X116830381Y-198917143D02*
X116830381Y-198298095D01*
X117211333Y-198631429D01*
X117211333Y-198488571D01*
X117258952Y-198393333D01*
X117306571Y-198345714D01*
X117401810Y-198298095D01*
X117639905Y-198298095D01*
X117735143Y-198345714D01*
X117782762Y-198393333D01*
X117830381Y-198488571D01*
X117830381Y-198774286D01*
X117782762Y-198869524D01*
X117735143Y-198917143D01*
X127830381Y-200774286D02*
X126830381Y-200774286D01*
X126830381Y-200536191D01*
X126878000Y-200393333D01*
X126973238Y-200298095D01*
X127068476Y-200250476D01*
X127258952Y-200202857D01*
X127401810Y-200202857D01*
X127592286Y-200250476D01*
X127687524Y-200298095D01*
X127782762Y-200393333D01*
X127830381Y-200536191D01*
X127830381Y-200774286D01*
X126830381Y-199298095D02*
X126830381Y-199774286D01*
X127306571Y-199821905D01*
X127258952Y-199774286D01*
X127211333Y-199679048D01*
X127211333Y-199440952D01*
X127258952Y-199345714D01*
X127306571Y-199298095D01*
X127401810Y-199250476D01*
X127639905Y-199250476D01*
X127735143Y-199298095D01*
X127782762Y-199345714D01*
X127830381Y-199440952D01*
X127830381Y-199679048D01*
X127782762Y-199774286D01*
X127735143Y-199821905D01*
X127163714Y-198393333D02*
X127830381Y-198393333D01*
X126782762Y-198631429D02*
X127497048Y-198869524D01*
X127497048Y-198250476D01*
X107830381Y-210774286D02*
X106830381Y-210774286D01*
X106830381Y-210536191D01*
X106878000Y-210393333D01*
X106973238Y-210298095D01*
X107068476Y-210250476D01*
X107258952Y-210202857D01*
X107401810Y-210202857D01*
X107592286Y-210250476D01*
X107687524Y-210298095D01*
X107782762Y-210393333D01*
X107830381Y-210536191D01*
X107830381Y-210774286D01*
X106830381Y-209298095D02*
X106830381Y-209774286D01*
X107306571Y-209821905D01*
X107258952Y-209774286D01*
X107211333Y-209679048D01*
X107211333Y-209440952D01*
X107258952Y-209345714D01*
X107306571Y-209298095D01*
X107401810Y-209250476D01*
X107639905Y-209250476D01*
X107735143Y-209298095D01*
X107782762Y-209345714D01*
X107830381Y-209440952D01*
X107830381Y-209679048D01*
X107782762Y-209774286D01*
X107735143Y-209821905D01*
X106830381Y-208345714D02*
X106830381Y-208821905D01*
X107306571Y-208869524D01*
X107258952Y-208821905D01*
X107211333Y-208726667D01*
X107211333Y-208488571D01*
X107258952Y-208393333D01*
X107306571Y-208345714D01*
X107401810Y-208298095D01*
X107639905Y-208298095D01*
X107735143Y-208345714D01*
X107782762Y-208393333D01*
X107830381Y-208488571D01*
X107830381Y-208726667D01*
X107782762Y-208821905D01*
X107735143Y-208869524D01*
X117830381Y-210774286D02*
X116830381Y-210774286D01*
X116830381Y-210536191D01*
X116878000Y-210393333D01*
X116973238Y-210298095D01*
X117068476Y-210250476D01*
X117258952Y-210202857D01*
X117401810Y-210202857D01*
X117592286Y-210250476D01*
X117687524Y-210298095D01*
X117782762Y-210393333D01*
X117830381Y-210536191D01*
X117830381Y-210774286D01*
X116830381Y-209298095D02*
X116830381Y-209774286D01*
X117306571Y-209821905D01*
X117258952Y-209774286D01*
X117211333Y-209679048D01*
X117211333Y-209440952D01*
X117258952Y-209345714D01*
X117306571Y-209298095D01*
X117401810Y-209250476D01*
X117639905Y-209250476D01*
X117735143Y-209298095D01*
X117782762Y-209345714D01*
X117830381Y-209440952D01*
X117830381Y-209679048D01*
X117782762Y-209774286D01*
X117735143Y-209821905D01*
X116830381Y-208393333D02*
X116830381Y-208583810D01*
X116878000Y-208679048D01*
X116925619Y-208726667D01*
X117068476Y-208821905D01*
X117258952Y-208869524D01*
X117639905Y-208869524D01*
X117735143Y-208821905D01*
X117782762Y-208774286D01*
X117830381Y-208679048D01*
X117830381Y-208488571D01*
X117782762Y-208393333D01*
X117735143Y-208345714D01*
X117639905Y-208298095D01*
X117401810Y-208298095D01*
X117306571Y-208345714D01*
X117258952Y-208393333D01*
X117211333Y-208488571D01*
X117211333Y-208679048D01*
X117258952Y-208774286D01*
X117306571Y-208821905D01*
X117401810Y-208869524D01*
X127830381Y-210774286D02*
X126830381Y-210774286D01*
X126830381Y-210536191D01*
X126878000Y-210393333D01*
X126973238Y-210298095D01*
X127068476Y-210250476D01*
X127258952Y-210202857D01*
X127401810Y-210202857D01*
X127592286Y-210250476D01*
X127687524Y-210298095D01*
X127782762Y-210393333D01*
X127830381Y-210536191D01*
X127830381Y-210774286D01*
X126830381Y-209298095D02*
X126830381Y-209774286D01*
X127306571Y-209821905D01*
X127258952Y-209774286D01*
X127211333Y-209679048D01*
X127211333Y-209440952D01*
X127258952Y-209345714D01*
X127306571Y-209298095D01*
X127401810Y-209250476D01*
X127639905Y-209250476D01*
X127735143Y-209298095D01*
X127782762Y-209345714D01*
X127830381Y-209440952D01*
X127830381Y-209679048D01*
X127782762Y-209774286D01*
X127735143Y-209821905D01*
X126830381Y-208917143D02*
X126830381Y-208250476D01*
X127830381Y-208679048D01*
X107830381Y-220774286D02*
X106830381Y-220774286D01*
X106830381Y-220536191D01*
X106878000Y-220393333D01*
X106973238Y-220298095D01*
X107068476Y-220250476D01*
X107258952Y-220202857D01*
X107401810Y-220202857D01*
X107592286Y-220250476D01*
X107687524Y-220298095D01*
X107782762Y-220393333D01*
X107830381Y-220536191D01*
X107830381Y-220774286D01*
X106830381Y-219298095D02*
X106830381Y-219774286D01*
X107306571Y-219821905D01*
X107258952Y-219774286D01*
X107211333Y-219679048D01*
X107211333Y-219440952D01*
X107258952Y-219345714D01*
X107306571Y-219298095D01*
X107401810Y-219250476D01*
X107639905Y-219250476D01*
X107735143Y-219298095D01*
X107782762Y-219345714D01*
X107830381Y-219440952D01*
X107830381Y-219679048D01*
X107782762Y-219774286D01*
X107735143Y-219821905D01*
X107258952Y-218679048D02*
X107211333Y-218774286D01*
X107163714Y-218821905D01*
X107068476Y-218869524D01*
X107020857Y-218869524D01*
X106925619Y-218821905D01*
X106878000Y-218774286D01*
X106830381Y-218679048D01*
X106830381Y-218488571D01*
X106878000Y-218393333D01*
X106925619Y-218345714D01*
X107020857Y-218298095D01*
X107068476Y-218298095D01*
X107163714Y-218345714D01*
X107211333Y-218393333D01*
X107258952Y-218488571D01*
X107258952Y-218679048D01*
X107306571Y-218774286D01*
X107354190Y-218821905D01*
X107449429Y-218869524D01*
X107639905Y-218869524D01*
X107735143Y-218821905D01*
X107782762Y-218774286D01*
X107830381Y-218679048D01*
X107830381Y-218488571D01*
X107782762Y-218393333D01*
X107735143Y-218345714D01*
X107639905Y-218298095D01*
X107449429Y-218298095D01*
X107354190Y-218345714D01*
X107306571Y-218393333D01*
X107258952Y-218488571D01*
X117830381Y-220774286D02*
X116830381Y-220774286D01*
X116830381Y-220536191D01*
X116878000Y-220393333D01*
X116973238Y-220298095D01*
X117068476Y-220250476D01*
X117258952Y-220202857D01*
X117401810Y-220202857D01*
X117592286Y-220250476D01*
X117687524Y-220298095D01*
X117782762Y-220393333D01*
X117830381Y-220536191D01*
X117830381Y-220774286D01*
X116830381Y-219298095D02*
X116830381Y-219774286D01*
X117306571Y-219821905D01*
X117258952Y-219774286D01*
X117211333Y-219679048D01*
X117211333Y-219440952D01*
X117258952Y-219345714D01*
X117306571Y-219298095D01*
X117401810Y-219250476D01*
X117639905Y-219250476D01*
X117735143Y-219298095D01*
X117782762Y-219345714D01*
X117830381Y-219440952D01*
X117830381Y-219679048D01*
X117782762Y-219774286D01*
X117735143Y-219821905D01*
X117830381Y-218774286D02*
X117830381Y-218583810D01*
X117782762Y-218488571D01*
X117735143Y-218440952D01*
X117592286Y-218345714D01*
X117401810Y-218298095D01*
X117020857Y-218298095D01*
X116925619Y-218345714D01*
X116878000Y-218393333D01*
X116830381Y-218488571D01*
X116830381Y-218679048D01*
X116878000Y-218774286D01*
X116925619Y-218821905D01*
X117020857Y-218869524D01*
X117258952Y-218869524D01*
X117354190Y-218821905D01*
X117401810Y-218774286D01*
X117449429Y-218679048D01*
X117449429Y-218488571D01*
X117401810Y-218393333D01*
X117354190Y-218345714D01*
X117258952Y-218298095D01*
X127830381Y-220774286D02*
X126830381Y-220774286D01*
X126830381Y-220536191D01*
X126878000Y-220393333D01*
X126973238Y-220298095D01*
X127068476Y-220250476D01*
X127258952Y-220202857D01*
X127401810Y-220202857D01*
X127592286Y-220250476D01*
X127687524Y-220298095D01*
X127782762Y-220393333D01*
X127830381Y-220536191D01*
X127830381Y-220774286D01*
X126830381Y-219345714D02*
X126830381Y-219536191D01*
X126878000Y-219631429D01*
X126925619Y-219679048D01*
X127068476Y-219774286D01*
X127258952Y-219821905D01*
X127639905Y-219821905D01*
X127735143Y-219774286D01*
X127782762Y-219726667D01*
X127830381Y-219631429D01*
X127830381Y-219440952D01*
X127782762Y-219345714D01*
X127735143Y-219298095D01*
X127639905Y-219250476D01*
X127401810Y-219250476D01*
X127306571Y-219298095D01*
X127258952Y-219345714D01*
X127211333Y-219440952D01*
X127211333Y-219631429D01*
X127258952Y-219726667D01*
X127306571Y-219774286D01*
X127401810Y-219821905D01*
X126830381Y-218631429D02*
X126830381Y-218536190D01*
X126878000Y-218440952D01*
X126925619Y-218393333D01*
X127020857Y-218345714D01*
X127211333Y-218298095D01*
X127449429Y-218298095D01*
X127639905Y-218345714D01*
X127735143Y-218393333D01*
X127782762Y-218440952D01*
X127830381Y-218536190D01*
X127830381Y-218631429D01*
X127782762Y-218726667D01*
X127735143Y-218774286D01*
X127639905Y-218821905D01*
X127449429Y-218869524D01*
X127211333Y-218869524D01*
X127020857Y-218821905D01*
X126925619Y-218774286D01*
X126878000Y-218726667D01*
X126830381Y-218631429D01*
X107830381Y-230774286D02*
X106830381Y-230774286D01*
X106830381Y-230536191D01*
X106878000Y-230393333D01*
X106973238Y-230298095D01*
X107068476Y-230250476D01*
X107258952Y-230202857D01*
X107401810Y-230202857D01*
X107592286Y-230250476D01*
X107687524Y-230298095D01*
X107782762Y-230393333D01*
X107830381Y-230536191D01*
X107830381Y-230774286D01*
X106830381Y-229345714D02*
X106830381Y-229536191D01*
X106878000Y-229631429D01*
X106925619Y-229679048D01*
X107068476Y-229774286D01*
X107258952Y-229821905D01*
X107639905Y-229821905D01*
X107735143Y-229774286D01*
X107782762Y-229726667D01*
X107830381Y-229631429D01*
X107830381Y-229440952D01*
X107782762Y-229345714D01*
X107735143Y-229298095D01*
X107639905Y-229250476D01*
X107401810Y-229250476D01*
X107306571Y-229298095D01*
X107258952Y-229345714D01*
X107211333Y-229440952D01*
X107211333Y-229631429D01*
X107258952Y-229726667D01*
X107306571Y-229774286D01*
X107401810Y-229821905D01*
X107830381Y-228298095D02*
X107830381Y-228869524D01*
X107830381Y-228583810D02*
X106830381Y-228583810D01*
X106973238Y-228679048D01*
X107068476Y-228774286D01*
X107116095Y-228869524D01*
X117830381Y-230774286D02*
X116830381Y-230774286D01*
X116830381Y-230536191D01*
X116878000Y-230393333D01*
X116973238Y-230298095D01*
X117068476Y-230250476D01*
X117258952Y-230202857D01*
X117401810Y-230202857D01*
X117592286Y-230250476D01*
X117687524Y-230298095D01*
X117782762Y-230393333D01*
X117830381Y-230536191D01*
X117830381Y-230774286D01*
X116830381Y-229345714D02*
X116830381Y-229536191D01*
X116878000Y-229631429D01*
X116925619Y-229679048D01*
X117068476Y-229774286D01*
X117258952Y-229821905D01*
X117639905Y-229821905D01*
X117735143Y-229774286D01*
X117782762Y-229726667D01*
X117830381Y-229631429D01*
X117830381Y-229440952D01*
X117782762Y-229345714D01*
X117735143Y-229298095D01*
X117639905Y-229250476D01*
X117401810Y-229250476D01*
X117306571Y-229298095D01*
X117258952Y-229345714D01*
X117211333Y-229440952D01*
X117211333Y-229631429D01*
X117258952Y-229726667D01*
X117306571Y-229774286D01*
X117401810Y-229821905D01*
X116925619Y-228869524D02*
X116878000Y-228821905D01*
X116830381Y-228726667D01*
X116830381Y-228488571D01*
X116878000Y-228393333D01*
X116925619Y-228345714D01*
X117020857Y-228298095D01*
X117116095Y-228298095D01*
X117258952Y-228345714D01*
X117830381Y-228917143D01*
X117830381Y-228298095D01*
X127830381Y-230774286D02*
X126830381Y-230774286D01*
X126830381Y-230536191D01*
X126878000Y-230393333D01*
X126973238Y-230298095D01*
X127068476Y-230250476D01*
X127258952Y-230202857D01*
X127401810Y-230202857D01*
X127592286Y-230250476D01*
X127687524Y-230298095D01*
X127782762Y-230393333D01*
X127830381Y-230536191D01*
X127830381Y-230774286D01*
X126830381Y-229345714D02*
X126830381Y-229536191D01*
X126878000Y-229631429D01*
X126925619Y-229679048D01*
X127068476Y-229774286D01*
X127258952Y-229821905D01*
X127639905Y-229821905D01*
X127735143Y-229774286D01*
X127782762Y-229726667D01*
X127830381Y-229631429D01*
X127830381Y-229440952D01*
X127782762Y-229345714D01*
X127735143Y-229298095D01*
X127639905Y-229250476D01*
X127401810Y-229250476D01*
X127306571Y-229298095D01*
X127258952Y-229345714D01*
X127211333Y-229440952D01*
X127211333Y-229631429D01*
X127258952Y-229726667D01*
X127306571Y-229774286D01*
X127401810Y-229821905D01*
X126830381Y-228917143D02*
X126830381Y-228298095D01*
X127211333Y-228631429D01*
X127211333Y-228488571D01*
X127258952Y-228393333D01*
X127306571Y-228345714D01*
X127401810Y-228298095D01*
X127639905Y-228298095D01*
X127735143Y-228345714D01*
X127782762Y-228393333D01*
X127830381Y-228488571D01*
X127830381Y-228774286D01*
X127782762Y-228869524D01*
X127735143Y-228917143D01*
X119132381Y-240138095D02*
X118132381Y-240138095D01*
X118132381Y-239757142D01*
X118180000Y-239661904D01*
X118227619Y-239614285D01*
X118322857Y-239566666D01*
X118465714Y-239566666D01*
X118560952Y-239614285D01*
X118608571Y-239661904D01*
X118656190Y-239757142D01*
X118656190Y-240138095D01*
X118465714Y-238709523D02*
X119132381Y-238709523D01*
X118084762Y-238947619D02*
X118799048Y-239185714D01*
X118799048Y-238566666D01*
M02*
